<mxfile host="app.diagrams.net" modified="2024-06-04T04:07:46.437Z" agent="Mozilla/5.0 (Windows NT 10.0; Win64; x64) AppleWebKit/537.36 (KHTML, like Gecko) Chrome/123.0.0.0 Safari/537.36 OPR/109.0.0.0" etag="K2Ga0fwzmBuomCPemqA0" version="24.4.13" type="github">
  <diagram name="Página-1" id="MAHdXCRO-UhIbxjihkxa">
    <mxGraphModel dx="1660" dy="1646" grid="1" gridSize="10" guides="1" tooltips="1" connect="1" arrows="1" fold="1" page="1" pageScale="1" pageWidth="827" pageHeight="1169" math="0" shadow="0">
      <root>
        <mxCell id="0" />
        <mxCell id="1" parent="0" />
        <UserObject label="" plantUmlData="{&#xa;  &quot;data&quot;: &quot;@startuml\nstart\n:sumatoria=0;\n:sumatoria_por_clave1=0;\n:sumatoria_por_clave2=0;\n:sumatoria_por_clave3=0;\n\n:print(\&quot;¿Qué tipo de clave de Vehículo Desea determinar el impuesto\&quot;);\n:print(\&quot;1) Clave 1\&quot;);\n:print(\&quot;2) Clave 2\&quot;);\n:print(\&quot;3) Clave 3\&quot;);\n:tipo_clave=input(\&quot;Ingrese la clave del vehículo que desea determinar el impuesto:\&quot;);\n\nwhile (tipo_clave &gt; 0 and tipo_clave &lt; 4)\n  if (tipo_clave == 1)\n    :contador_clave1=0;\n    :valor=input(\&quot;¿Cuántos vehículos de clave tipo 1 desea sacar el impuesto?\&quot;);\n    while (contador_clave1 &lt; valor)\n      :precio_v=input(f\&quot;Precio {contador_clave1+1} del vehículo de clave tipo 1:\&quot;);\n      :impuesto=precio_v*0.10;\n      :print(f\&quot;El impuesto {contador_clave1+1} del vehículo de clave tipo 1 es: {round(impuesto, 2)}\&quot;);\n      :sumatoria_por_clave1+=impuesto;\n      :contador_clave1+=1;\n    endwhile\n  elseif (tipo_clave == 2)\n    :contador_clave2=0;\n    :valor=input(\&quot;¿Cuántos vehículos de clave tipo 2 desea sacar el impuesto?\&quot;);\n    while (contador_clave2 &lt; valor)\n      :precio_v=input(f\&quot;Ingrese el precio {contador_clave2+1} del vehículo de clave tipo 2:\&quot;);\n      :impuesto=precio_v*0.07;\n      :print(f\&quot;El impuesto {contador_clave2+1} del vehículo de clave tipo 2 es: {round(impuesto, 2)}\&quot;);\n      :sumatoria_por_clave2+=impuesto;\n      :contador_clave2+=1;\n    endwhile\n  elseif (tipo_clave == 3)\n    :contador_clave3=0;\n    :valor=input(\&quot;¿Cuántos vehículos de clave tipo 3 desea sacar el impuesto?\&quot;);\n    while (contador_clave3 &lt; valor)\n      :precio_v=input(f\&quot;Ingrese el precio {contador_clave3+1} del vehículo clave tipo 3:\&quot;);\n      :impuesto=precio_v*0.05;\n      :print(f\&quot;El impuesto {contador_clave3+1} del vehículo de clave tipo 3 es: {round(impuesto, 2)}\&quot;);\n      :sumatoria_por_clave3+=impuesto;\n      :contador_clave3+=1;\n    endwhile\n  else\n    :print(\&quot;Este tipo de clave de vehículo no existe\&quot;);\n    :print(\&quot;Muchas Gracias\&quot;);\n  endif\n  :print(\&quot;¿Desea sacar el impuesto de otra clave de vehículo?\&quot;);\n  :valor2=input(\&quot;(Si o No:)\&quot;);\n  if (valor2 == &#39;si&#39;)\n    :print(\&quot;¿Qué tipo de clave de Vehículo Desea determinar el impuesto\&quot;);\n    :print(\&quot;1) Clave 1\&quot;);\n    :print(\&quot;2) Clave 2\&quot;);\n    :print(\&quot;3) Clave 3\&quot;);\n    :tipo_clave=input(\&quot;Ingrese la clave del vehículo que desea determinar el impuesto:\&quot;);\n  else\n    break\n  endif\nendwhile\n\n:sumatoria=sumatoria_por_clave1+sumatoria_por_clave2+sumatoria_por_clave3;\n\n:print(f\&quot;El Impuesto total del vehículo clave 1 es: {round(sumatoria_por_clave1, 2)}\&quot;);\n:print(f\&quot;El Impuesto total del vehículo clave 2 es: {round(sumatoria_por_clave2, 2)}\&quot;);\n:print(f\&quot;El Impuesto total del vehículo clave 3 es: {round(sumatoria_por_clave3, 2)}\&quot;);\n:print(f\&quot;El Impuesto total de todos los vehículos que debes pagar es de: {round(sumatoria, 2)}\&quot;);\n:print(\&quot;Muchas Gracias\&quot;);\nstop\n@enduml\n&quot;,&#xa;  &quot;format&quot;: &quot;svg&quot;&#xa;}" id="UfKcYr1BHK7bEt0cuujJ-1">
          <mxCell style="shape=image;noLabel=1;verticalAlign=top;aspect=fixed;imageAspect=0;image=data:image/svg+xml,PD94bWwgdmVyc2lvbj0iMS4wIiBlbmNvZGluZz0idXMtYXNjaWkiIHN0YW5kYWxvbmU9Im5vIj8+PHN2ZyB4bWxucz0iaHR0cDovL3d3dy53My5vcmcvMjAwMC9zdmciIHhtbG5zOnhsaW5rPSJodHRwOi8vd3d3LnczLm9yZy8xOTk5L3hsaW5rIiBjb250ZW50U3R5bGVUeXBlPSJ0ZXh0L2NzcyIgaGVpZ2h0PSIxODc2cHgiIHByZXNlcnZlQXNwZWN0UmF0aW89Im5vbmUiIHN0eWxlPSJ3aWR0aDoyNDYwcHg7aGVpZ2h0OjE4NzZweDtiYWNrZ3JvdW5kOiNGRkZGRkY7IiB2ZXJzaW9uPSIxLjEiIHZpZXdCb3g9IjAgMCAyNDYwIDE4NzYiIHdpZHRoPSIyNDYwcHgiIHpvb21BbmRQYW49Im1hZ25pZnkiPjxkZWZzLz48Zz48ZWxsaXBzZSBjeD0iMTIyNSIgY3k9IjIwIiBmaWxsPSIjMjIyMjIyIiByeD0iMTAiIHJ5PSIxMCIgc3R5bGU9InN0cm9rZTojMjIyMjIyO3N0cm9rZS13aWR0aDoxLjA7Ii8+PHJlY3QgZmlsbD0iI0YxRjFGMSIgaGVpZ2h0PSIzMi44NDM4IiByeD0iMTIuNSIgcnk9IjEyLjUiIHN0eWxlPSJzdHJva2U6IzE4MTgxODtzdHJva2Utd2lkdGg6MC41OyIgd2lkdGg9IjkyIiB4PSIxMTc5IiB5PSI1MCIvPjx0ZXh0IGZpbGw9IiMwMDAwMDAiIGZvbnQtZmFtaWx5PSJzYW5zLXNlcmlmIiBmb250LXNpemU9IjEyIiBsZW5ndGhBZGp1c3Q9InNwYWNpbmciIHRleHRMZW5ndGg9IjcyIiB4PSIxMTg5IiB5PSI3MS4zNDM4Ij5zdW1hdG9yaWE9MDwvdGV4dD48cmVjdCBmaWxsPSIjRjFGMUYxIiBoZWlnaHQ9IjMyLjg0MzgiIHJ4PSIxMi41IiByeT0iMTIuNSIgc3R5bGU9InN0cm9rZTojMTgxODE4O3N0cm9rZS13aWR0aDowLjU7IiB3aWR0aD0iMTY0IiB4PSIxMTQzIiB5PSIxMDIuODQzOCIvPjx0ZXh0IGZpbGw9IiMwMDAwMDAiIGZvbnQtZmFtaWx5PSJzYW5zLXNlcmlmIiBmb250LXNpemU9IjEyIiBsZW5ndGhBZGp1c3Q9InNwYWNpbmciIHRleHRMZW5ndGg9IjE0NCIgeD0iMTE1MyIgeT0iMTI0LjE4NzUiPnN1bWF0b3JpYV9wb3JfY2xhdmUxPTA8L3RleHQ+PHJlY3QgZmlsbD0iI0YxRjFGMSIgaGVpZ2h0PSIzMi44NDM4IiByeD0iMTIuNSIgcnk9IjEyLjUiIHN0eWxlPSJzdHJva2U6IzE4MTgxODtzdHJva2Utd2lkdGg6MC41OyIgd2lkdGg9IjE2NCIgeD0iMTE0MyIgeT0iMTU1LjY4NzUiLz48dGV4dCBmaWxsPSIjMDAwMDAwIiBmb250LWZhbWlseT0ic2Fucy1zZXJpZiIgZm9udC1zaXplPSIxMiIgbGVuZ3RoQWRqdXN0PSJzcGFjaW5nIiB0ZXh0TGVuZ3RoPSIxNDQiIHg9IjExNTMiIHk9IjE3Ny4wMzEzIj5zdW1hdG9yaWFfcG9yX2NsYXZlMj0wPC90ZXh0PjxyZWN0IGZpbGw9IiNGMUYxRjEiIGhlaWdodD0iMzIuODQzOCIgcng9IjEyLjUiIHJ5PSIxMi41IiBzdHlsZT0ic3Ryb2tlOiMxODE4MTg7c3Ryb2tlLXdpZHRoOjAuNTsiIHdpZHRoPSIxNjQiIHg9IjExNDMiIHk9IjIwOC41MzEzIi8+PHRleHQgZmlsbD0iIzAwMDAwMCIgZm9udC1mYW1pbHk9InNhbnMtc2VyaWYiIGZvbnQtc2l6ZT0iMTIiIGxlbmd0aEFkanVzdD0ic3BhY2luZyIgdGV4dExlbmd0aD0iMTQ0IiB4PSIxMTUzIiB5PSIyMjkuODc1Ij5zdW1hdG9yaWFfcG9yX2NsYXZlMz0wPC90ZXh0PjxyZWN0IGZpbGw9IiNGMUYxRjEiIGhlaWdodD0iMzIuODQzOCIgcng9IjEyLjUiIHJ5PSIxMi41IiBzdHlsZT0ic3Ryb2tlOiMxODE4MTg7c3Ryb2tlLXdpZHRoOjAuNTsiIHdpZHRoPSI0NjciIHg9Ijk5MS41IiB5PSIyNjEuMzc1Ii8+PHRleHQgZmlsbD0iIzAwMDAwMCIgZm9udC1mYW1pbHk9InNhbnMtc2VyaWYiIGZvbnQtc2l6ZT0iMTIiIGxlbmd0aEFkanVzdD0ic3BhY2luZyIgdGV4dExlbmd0aD0iNDQ3IiB4PSIxMDAxLjUiIHk9IjI4Mi43MTg4Ij5wcmludCgiJiMxOTE7UXUmIzIzMzsgdGlwbyBkZSBjbGF2ZSBkZSBWZWgmIzIzNztjdWxvIERlc2VhIGRldGVybWluYXIgZWwgaW1wdWVzdG8iKTwvdGV4dD48cmVjdCBmaWxsPSIjRjFGMUYxIiBoZWlnaHQ9IjMyLjg0MzgiIHJ4PSIxMi41IiByeT0iMTIuNSIgc3R5bGU9InN0cm9rZTojMTgxODE4O3N0cm9rZS13aWR0aDowLjU7IiB3aWR0aD0iMTQxIiB4PSIxMTU0LjUiIHk9IjMxNC4yMTg4Ii8+PHRleHQgZmlsbD0iIzAwMDAwMCIgZm9udC1mYW1pbHk9InNhbnMtc2VyaWYiIGZvbnQtc2l6ZT0iMTIiIGxlbmd0aEFkanVzdD0ic3BhY2luZyIgdGV4dExlbmd0aD0iMTIxIiB4PSIxMTY0LjUiIHk9IjMzNS41NjI1Ij5wcmludCgiMSkgQ2xhdmUgMSIpPC90ZXh0PjxyZWN0IGZpbGw9IiNGMUYxRjEiIGhlaWdodD0iMzIuODQzOCIgcng9IjEyLjUiIHJ5PSIxMi41IiBzdHlsZT0ic3Ryb2tlOiMxODE4MTg7c3Ryb2tlLXdpZHRoOjAuNTsiIHdpZHRoPSIxNDEiIHg9IjExNTQuNSIgeT0iMzY3LjA2MjUiLz48dGV4dCBmaWxsPSIjMDAwMDAwIiBmb250LWZhbWlseT0ic2Fucy1zZXJpZiIgZm9udC1zaXplPSIxMiIgbGVuZ3RoQWRqdXN0PSJzcGFjaW5nIiB0ZXh0TGVuZ3RoPSIxMjEiIHg9IjExNjQuNSIgeT0iMzg4LjQwNjMiPnByaW50KCIyKSBDbGF2ZSAyIik8L3RleHQ+PHJlY3QgZmlsbD0iI0YxRjFGMSIgaGVpZ2h0PSIzMi44NDM4IiByeD0iMTIuNSIgcnk9IjEyLjUiIHN0eWxlPSJzdHJva2U6IzE4MTgxODtzdHJva2Utd2lkdGg6MC41OyIgd2lkdGg9IjE0MSIgeD0iMTE1NC41IiB5PSI0MTkuOTA2MyIvPjx0ZXh0IGZpbGw9IiMwMDAwMDAiIGZvbnQtZmFtaWx5PSJzYW5zLXNlcmlmIiBmb250LXNpemU9IjEyIiBsZW5ndGhBZGp1c3Q9InNwYWNpbmciIHRleHRMZW5ndGg9IjEyMSIgeD0iMTE2NC41IiB5PSI0NDEuMjUiPnByaW50KCIzKSBDbGF2ZSAzIik8L3RleHQ+PHJlY3QgZmlsbD0iI0YxRjFGMSIgaGVpZ2h0PSIzMi44NDM4IiByeD0iMTIuNSIgcnk9IjEyLjUiIHN0eWxlPSJzdHJva2U6IzE4MTgxODtzdHJva2Utd2lkdGg6MC41OyIgd2lkdGg9IjU2NCIgeD0iOTQzIiB5PSI0NzIuNzUiLz48dGV4dCBmaWxsPSIjMDAwMDAwIiBmb250LWZhbWlseT0ic2Fucy1zZXJpZiIgZm9udC1zaXplPSIxMiIgbGVuZ3RoQWRqdXN0PSJzcGFjaW5nIiB0ZXh0TGVuZ3RoPSI1NDQiIHg9Ijk1MyIgeT0iNDk0LjA5MzgiPnRpcG9fY2xhdmU9aW5wdXQoIkluZ3Jlc2UgbGEgY2xhdmUgZGVsIHZlaCYjMjM3O2N1bG8gcXVlIGRlc2VhIGRldGVybWluYXIgZWwgaW1wdWVzdG86Iik8L3RleHQ+PHBvbHlnb24gZmlsbD0iI0YxRjFGMSIgcG9pbnRzPSIzMzEuNSw1NjkuNTkzOCw0MjEuNSw1NjkuNTkzOCw0MzMuNSw1ODEuNTkzOCw0MjEuNSw1OTMuNTkzOCwzMzEuNSw1OTMuNTkzOCwzMTkuNSw1ODEuNTkzOCwzMzEuNSw1NjkuNTkzOCIgc3R5bGU9InN0cm9rZTojMTgxODE4O3N0cm9rZS13aWR0aDowLjU7Ii8+PHRleHQgZmlsbD0iIzAwMDAwMCIgZm9udC1mYW1pbHk9InNhbnMtc2VyaWYiIGZvbnQtc2l6ZT0iMTEiIGxlbmd0aEFkanVzdD0ic3BhY2luZyIgdGV4dExlbmd0aD0iOTAiIHg9IjMzMS41IiB5PSI1ODYuMTA1NSI+dGlwb19jbGF2ZSA9PSAxPC90ZXh0PjxyZWN0IGZpbGw9IiNGMUYxRjEiIGhlaWdodD0iMzIuODQzOCIgcng9IjEyLjUiIHJ5PSIxMi41IiBzdHlsZT0ic3Ryb2tlOiMxODE4MTg7c3Ryb2tlLXdpZHRoOjAuNTsiIHdpZHRoPSIxMzEiIHg9IjMxMSIgeT0iNjEzLjU5MzgiLz48dGV4dCBmaWxsPSIjMDAwMDAwIiBmb250LWZhbWlseT0ic2Fucy1zZXJpZiIgZm9udC1zaXplPSIxMiIgbGVuZ3RoQWRqdXN0PSJzcGFjaW5nIiB0ZXh0TGVuZ3RoPSIxMTEiIHg9IjMyMSIgeT0iNjM0LjkzNzUiPmNvbnRhZG9yX2NsYXZlMT0wPC90ZXh0PjxyZWN0IGZpbGw9IiNGMUYxRjEiIGhlaWdodD0iMzIuODQzOCIgcng9IjEyLjUiIHJ5PSIxMi41IiBzdHlsZT0ic3Ryb2tlOiMxODE4MTg7c3Ryb2tlLXdpZHRoOjAuNTsiIHdpZHRoPSI1MDciIHg9IjEyMyIgeT0iNjY2LjQzNzUiLz48dGV4dCBmaWxsPSIjMDAwMDAwIiBmb250LWZhbWlseT0ic2Fucy1zZXJpZiIgZm9udC1zaXplPSIxMiIgbGVuZ3RoQWRqdXN0PSJzcGFjaW5nIiB0ZXh0TGVuZ3RoPSI0ODciIHg9IjEzMyIgeT0iNjg3Ljc4MTMiPnZhbG9yPWlucHV0KCImIzE5MTtDdSYjMjI1O250b3MgdmVoJiMyMzc7Y3Vsb3MgZGUgY2xhdmUgdGlwbyAxIGRlc2VhIHNhY2FyIGVsIGltcHVlc3RvPyIpPC90ZXh0PjxyZWN0IGZpbGw9IiNGMUYxRjEiIGhlaWdodD0iMzIuODQzOCIgcng9IjEyLjUiIHJ5PSIxMi41IiBzdHlsZT0ic3Ryb2tlOiMxODE4MTg7c3Ryb2tlLXdpZHRoOjAuNTsiIHdpZHRoPSI1MDUiIHg9IjEyNCIgeT0iNzYzLjI4MTMiLz48dGV4dCBmaWxsPSIjMDAwMDAwIiBmb250LWZhbWlseT0ic2Fucy1zZXJpZiIgZm9udC1zaXplPSIxMiIgbGVuZ3RoQWRqdXN0PSJzcGFjaW5nIiB0ZXh0TGVuZ3RoPSI0ODUiIHg9IjEzNCIgeT0iNzg0LjYyNSI+cHJlY2lvX3Y9aW5wdXQoZiJQcmVjaW8ge2NvbnRhZG9yX2NsYXZlMSsxfSBkZWwgdmVoJiMyMzc7Y3VsbyBkZSBjbGF2ZSB0aXBvIDE6Iik8L3RleHQ+PHJlY3QgZmlsbD0iI0YxRjFGMSIgaGVpZ2h0PSIzMi44NDM4IiByeD0iMTIuNSIgcnk9IjEyLjUiIHN0eWxlPSJzdHJva2U6IzE4MTgxODtzdHJva2Utd2lkdGg6MC41OyIgd2lkdGg9IjE2MiIgeD0iMjk1LjUiIHk9IjgzMS4xMjUiLz48dGV4dCBmaWxsPSIjMDAwMDAwIiBmb250LWZhbWlseT0ic2Fucy1zZXJpZiIgZm9udC1zaXplPSIxMiIgbGVuZ3RoQWRqdXN0PSJzcGFjaW5nIiB0ZXh0TGVuZ3RoPSIxNDIiIHg9IjMwNS41IiB5PSI4NTIuNDY4OCI+aW1wdWVzdG89cHJlY2lvX3YqMC4xMDwvdGV4dD48cmVjdCBmaWxsPSIjRjFGMUYxIiBoZWlnaHQ9IjMyLjg0MzgiIHJ4PSIxMi41IiByeT0iMTIuNSIgc3R5bGU9InN0cm9rZTojMTgxODE4O3N0cm9rZS13aWR0aDowLjU7IiB3aWR0aD0iNjMzIiB4PSI2MCIgeT0iODk4Ljk2ODgiLz48dGV4dCBmaWxsPSIjMDAwMDAwIiBmb250LWZhbWlseT0ic2Fucy1zZXJpZiIgZm9udC1zaXplPSIxMiIgbGVuZ3RoQWRqdXN0PSJzcGFjaW5nIiB0ZXh0TGVuZ3RoPSI2MTMiIHg9IjcwIiB5PSI5MjAuMzEyNSI+cHJpbnQoZiJFbCBpbXB1ZXN0byB7Y29udGFkb3JfY2xhdmUxKzF9IGRlbCB2ZWgmIzIzNztjdWxvIGRlIGNsYXZlIHRpcG8gMSBlczoge3JvdW5kKGltcHVlc3RvLCAyKX0iKTwvdGV4dD48cmVjdCBmaWxsPSIjRjFGMUYxIiBoZWlnaHQ9IjMyLjg0MzgiIHJ4PSIxMi41IiByeT0iMTIuNSIgc3R5bGU9InN0cm9rZTojMTgxODE4O3N0cm9rZS13aWR0aDowLjU7IiB3aWR0aD0iMjE3IiB4PSIyNjgiIHk9Ijk1MS44MTI1Ii8+PHRleHQgZmlsbD0iIzAwMDAwMCIgZm9udC1mYW1pbHk9InNhbnMtc2VyaWYiIGZvbnQtc2l6ZT0iMTIiIGxlbmd0aEFkanVzdD0ic3BhY2luZyIgdGV4dExlbmd0aD0iMTk3IiB4PSIyNzgiIHk9Ijk3My4xNTYzIj5zdW1hdG9yaWFfcG9yX2NsYXZlMSs9aW1wdWVzdG88L3RleHQ+PHJlY3QgZmlsbD0iI0YxRjFGMSIgaGVpZ2h0PSIzMi44NDM4IiByeD0iMTIuNSIgcnk9IjEyLjUiIHN0eWxlPSJzdHJva2U6IzE4MTgxODtzdHJva2Utd2lkdGg6MC41OyIgd2lkdGg9IjEzNyIgeD0iMzA4IiB5PSIxMDA0LjY1NjMiLz48dGV4dCBmaWxsPSIjMDAwMDAwIiBmb250LWZhbWlseT0ic2Fucy1zZXJpZiIgZm9udC1zaXplPSIxMiIgbGVuZ3RoQWRqdXN0PSJzcGFjaW5nIiB0ZXh0TGVuZ3RoPSIxMTciIHg9IjMxOCIgeT0iMTAyNiI+Y29udGFkb3JfY2xhdmUxKz0xPC90ZXh0Pjxwb2x5Z29uIGZpbGw9IiNGMUYxRjEiIHBvaW50cz0iMzA3LjUsNzE5LjI4MTMsNDQ1LjUsNzE5LjI4MTMsNDU3LjUsNzMxLjI4MTMsNDQ1LjUsNzQzLjI4MTMsMzA3LjUsNzQzLjI4MTMsMjk1LjUsNzMxLjI4MTMsMzA3LjUsNzE5LjI4MTMiIHN0eWxlPSJzdHJva2U6IzE4MTgxODtzdHJva2Utd2lkdGg6MC41OyIvPjx0ZXh0IGZpbGw9IiMwMDAwMDAiIGZvbnQtZmFtaWx5PSJzYW5zLXNlcmlmIiBmb250LXNpemU9IjExIiBsZW5ndGhBZGp1c3Q9InNwYWNpbmciIHRleHRMZW5ndGg9IjEzOCIgeD0iMzA3LjUiIHk9IjczNS43OTMiPmNvbnRhZG9yX2NsYXZlMSAmbHQ7IHZhbG9yPC90ZXh0Pjxwb2x5Z29uIGZpbGw9IiNGMUYxRjEiIHBvaW50cz0iMTAwNi41LDU2OS41OTM4LDEwOTYuNSw1NjkuNTkzOCwxMTA4LjUsNTgxLjU5MzgsMTA5Ni41LDU5My41OTM4LDEwMDYuNSw1OTMuNTkzOCw5OTQuNSw1ODEuNTkzOCwxMDA2LjUsNTY5LjU5MzgiIHN0eWxlPSJzdHJva2U6IzE4MTgxODtzdHJva2Utd2lkdGg6MC41OyIvPjx0ZXh0IGZpbGw9IiMwMDAwMDAiIGZvbnQtZmFtaWx5PSJzYW5zLXNlcmlmIiBmb250LXNpemU9IjExIiBsZW5ndGhBZGp1c3Q9InNwYWNpbmciIHRleHRMZW5ndGg9IjkwIiB4PSIxMDA2LjUiIHk9IjU4Ni4xMDU1Ij50aXBvX2NsYXZlID09IDI8L3RleHQ+PHJlY3QgZmlsbD0iI0YxRjFGMSIgaGVpZ2h0PSIzMi44NDM4IiByeD0iMTIuNSIgcnk9IjEyLjUiIHN0eWxlPSJzdHJva2U6IzE4MTgxODtzdHJva2Utd2lkdGg6MC41OyIgd2lkdGg9IjEzMSIgeD0iOTg2IiB5PSI2MTMuNTkzOCIvPjx0ZXh0IGZpbGw9IiMwMDAwMDAiIGZvbnQtZmFtaWx5PSJzYW5zLXNlcmlmIiBmb250LXNpemU9IjEyIiBsZW5ndGhBZGp1c3Q9InNwYWNpbmciIHRleHRMZW5ndGg9IjExMSIgeD0iOTk2IiB5PSI2MzQuOTM3NSI+Y29udGFkb3JfY2xhdmUyPTA8L3RleHQ+PHJlY3QgZmlsbD0iI0YxRjFGMSIgaGVpZ2h0PSIzMi44NDM4IiByeD0iMTIuNSIgcnk9IjEyLjUiIHN0eWxlPSJzdHJva2U6IzE4MTgxODtzdHJva2Utd2lkdGg6MC41OyIgd2lkdGg9IjUwNyIgeD0iNzk4IiB5PSI2NjYuNDM3NSIvPjx0ZXh0IGZpbGw9IiMwMDAwMDAiIGZvbnQtZmFtaWx5PSJzYW5zLXNlcmlmIiBmb250LXNpemU9IjEyIiBsZW5ndGhBZGp1c3Q9InNwYWNpbmciIHRleHRMZW5ndGg9IjQ4NyIgeD0iODA4IiB5PSI2ODcuNzgxMyI+dmFsb3I9aW5wdXQoIiYjMTkxO0N1JiMyMjU7bnRvcyB2ZWgmIzIzNztjdWxvcyBkZSBjbGF2ZSB0aXBvIDIgZGVzZWEgc2FjYXIgZWwgaW1wdWVzdG8/Iik8L3RleHQ+PHJlY3QgZmlsbD0iI0YxRjFGMSIgaGVpZ2h0PSIzMi44NDM4IiByeD0iMTIuNSIgcnk9IjEyLjUiIHN0eWxlPSJzdHJva2U6IzE4MTgxODtzdHJva2Utd2lkdGg6MC41OyIgd2lkdGg9IjU3OCIgeD0iNzYyLjUiIHk9Ijc2My4yODEzIi8+PHRleHQgZmlsbD0iIzAwMDAwMCIgZm9udC1mYW1pbHk9InNhbnMtc2VyaWYiIGZvbnQtc2l6ZT0iMTIiIGxlbmd0aEFkanVzdD0ic3BhY2luZyIgdGV4dExlbmd0aD0iNTU4IiB4PSI3NzIuNSIgeT0iNzg0LjYyNSI+cHJlY2lvX3Y9aW5wdXQoZiJJbmdyZXNlIGVsIHByZWNpbyB7Y29udGFkb3JfY2xhdmUyKzF9IGRlbCB2ZWgmIzIzNztjdWxvIGRlIGNsYXZlIHRpcG8gMjoiKTwvdGV4dD48cmVjdCBmaWxsPSIjRjFGMUYxIiBoZWlnaHQ9IjMyLjg0MzgiIHJ4PSIxMi41IiByeT0iMTIuNSIgc3R5bGU9InN0cm9rZTojMTgxODE4O3N0cm9rZS13aWR0aDowLjU7IiB3aWR0aD0iMTYyIiB4PSI5NzAuNSIgeT0iODMxLjEyNSIvPjx0ZXh0IGZpbGw9IiMwMDAwMDAiIGZvbnQtZmFtaWx5PSJzYW5zLXNlcmlmIiBmb250LXNpemU9IjEyIiBsZW5ndGhBZGp1c3Q9InNwYWNpbmciIHRleHRMZW5ndGg9IjE0MiIgeD0iOTgwLjUiIHk9Ijg1Mi40Njg4Ij5pbXB1ZXN0bz1wcmVjaW9fdiowLjA3PC90ZXh0PjxyZWN0IGZpbGw9IiNGMUYxRjEiIGhlaWdodD0iMzIuODQzOCIgcng9IjEyLjUiIHJ5PSIxMi41IiBzdHlsZT0ic3Ryb2tlOiMxODE4MTg7c3Ryb2tlLXdpZHRoOjAuNTsiIHdpZHRoPSI2MzMiIHg9IjczNSIgeT0iODk4Ljk2ODgiLz48dGV4dCBmaWxsPSIjMDAwMDAwIiBmb250LWZhbWlseT0ic2Fucy1zZXJpZiIgZm9udC1zaXplPSIxMiIgbGVuZ3RoQWRqdXN0PSJzcGFjaW5nIiB0ZXh0TGVuZ3RoPSI2MTMiIHg9Ijc0NSIgeT0iOTIwLjMxMjUiPnByaW50KGYiRWwgaW1wdWVzdG8ge2NvbnRhZG9yX2NsYXZlMisxfSBkZWwgdmVoJiMyMzc7Y3VsbyBkZSBjbGF2ZSB0aXBvIDIgZXM6IHtyb3VuZChpbXB1ZXN0bywgMil9Iik8L3RleHQ+PHJlY3QgZmlsbD0iI0YxRjFGMSIgaGVpZ2h0PSIzMi44NDM4IiByeD0iMTIuNSIgcnk9IjEyLjUiIHN0eWxlPSJzdHJva2U6IzE4MTgxODtzdHJva2Utd2lkdGg6MC41OyIgd2lkdGg9IjIxNyIgeD0iOTQzIiB5PSI5NTEuODEyNSIvPjx0ZXh0IGZpbGw9IiMwMDAwMDAiIGZvbnQtZmFtaWx5PSJzYW5zLXNlcmlmIiBmb250LXNpemU9IjEyIiBsZW5ndGhBZGp1c3Q9InNwYWNpbmciIHRleHRMZW5ndGg9IjE5NyIgeD0iOTUzIiB5PSI5NzMuMTU2MyI+c3VtYXRvcmlhX3Bvcl9jbGF2ZTIrPWltcHVlc3RvPC90ZXh0PjxyZWN0IGZpbGw9IiNGMUYxRjEiIGhlaWdodD0iMzIuODQzOCIgcng9IjEyLjUiIHJ5PSIxMi41IiBzdHlsZT0ic3Ryb2tlOiMxODE4MTg7c3Ryb2tlLXdpZHRoOjAuNTsiIHdpZHRoPSIxMzciIHg9Ijk4MyIgeT0iMTAwNC42NTYzIi8+PHRleHQgZmlsbD0iIzAwMDAwMCIgZm9udC1mYW1pbHk9InNhbnMtc2VyaWYiIGZvbnQtc2l6ZT0iMTIiIGxlbmd0aEFkanVzdD0ic3BhY2luZyIgdGV4dExlbmd0aD0iMTE3IiB4PSI5OTMiIHk9IjEwMjYiPmNvbnRhZG9yX2NsYXZlMis9MTwvdGV4dD48cG9seWdvbiBmaWxsPSIjRjFGMUYxIiBwb2ludHM9Ijk4Mi41LDcxOS4yODEzLDExMjAuNSw3MTkuMjgxMywxMTMyLjUsNzMxLjI4MTMsMTEyMC41LDc0My4yODEzLDk4Mi41LDc0My4yODEzLDk3MC41LDczMS4yODEzLDk4Mi41LDcxOS4yODEzIiBzdHlsZT0ic3Ryb2tlOiMxODE4MTg7c3Ryb2tlLXdpZHRoOjAuNTsiLz48dGV4dCBmaWxsPSIjMDAwMDAwIiBmb250LWZhbWlseT0ic2Fucy1zZXJpZiIgZm9udC1zaXplPSIxMSIgbGVuZ3RoQWRqdXN0PSJzcGFjaW5nIiB0ZXh0TGVuZ3RoPSIxMzgiIHg9Ijk4Mi41IiB5PSI3MzUuNzkzIj5jb250YWRvcl9jbGF2ZTIgJmx0OyB2YWxvcjwvdGV4dD48cG9seWdvbiBmaWxsPSIjRjFGMUYxIiBwb2ludHM9IjE2OTUuNSw1NjkuNTkzOCwxNzg1LjUsNTY5LjU5MzgsMTc5Ny41LDU4MS41OTM4LDE3ODUuNSw1OTMuNTkzOCwxNjk1LjUsNTkzLjU5MzgsMTY4My41LDU4MS41OTM4LDE2OTUuNSw1NjkuNTkzOCIgc3R5bGU9InN0cm9rZTojMTgxODE4O3N0cm9rZS13aWR0aDowLjU7Ii8+PHRleHQgZmlsbD0iIzAwMDAwMCIgZm9udC1mYW1pbHk9InNhbnMtc2VyaWYiIGZvbnQtc2l6ZT0iMTEiIGxlbmd0aEFkanVzdD0ic3BhY2luZyIgdGV4dExlbmd0aD0iOTAiIHg9IjE2OTUuNSIgeT0iNTg2LjEwNTUiPnRpcG9fY2xhdmUgPT0gMzwvdGV4dD48cmVjdCBmaWxsPSIjRjFGMUYxIiBoZWlnaHQ9IjMyLjg0MzgiIHJ4PSIxMi41IiByeT0iMTIuNSIgc3R5bGU9InN0cm9rZTojMTgxODE4O3N0cm9rZS13aWR0aDowLjU7IiB3aWR0aD0iMTMxIiB4PSIxNjc1IiB5PSI2MTMuNTkzOCIvPjx0ZXh0IGZpbGw9IiMwMDAwMDAiIGZvbnQtZmFtaWx5PSJzYW5zLXNlcmlmIiBmb250LXNpemU9IjEyIiBsZW5ndGhBZGp1c3Q9InNwYWNpbmciIHRleHRMZW5ndGg9IjExMSIgeD0iMTY4NSIgeT0iNjM0LjkzNzUiPmNvbnRhZG9yX2NsYXZlMz0wPC90ZXh0PjxyZWN0IGZpbGw9IiNGMUYxRjEiIGhlaWdodD0iMzIuODQzOCIgcng9IjEyLjUiIHJ5PSIxMi41IiBzdHlsZT0ic3Ryb2tlOiMxODE4MTg7c3Ryb2tlLXdpZHRoOjAuNTsiIHdpZHRoPSI1MDciIHg9IjE0ODciIHk9IjY2Ni40Mzc1Ii8+PHRleHQgZmlsbD0iIzAwMDAwMCIgZm9udC1mYW1pbHk9InNhbnMtc2VyaWYiIGZvbnQtc2l6ZT0iMTIiIGxlbmd0aEFkanVzdD0ic3BhY2luZyIgdGV4dExlbmd0aD0iNDg3IiB4PSIxNDk3IiB5PSI2ODcuNzgxMyI+dmFsb3I9aW5wdXQoIiYjMTkxO0N1JiMyMjU7bnRvcyB2ZWgmIzIzNztjdWxvcyBkZSBjbGF2ZSB0aXBvIDMgZGVzZWEgc2FjYXIgZWwgaW1wdWVzdG8/Iik8L3RleHQ+PHJlY3QgZmlsbD0iI0YxRjFGMSIgaGVpZ2h0PSIzMi44NDM4IiByeD0iMTIuNSIgcnk9IjEyLjUiIHN0eWxlPSJzdHJva2U6IzE4MTgxODtzdHJva2Utd2lkdGg6MC41OyIgd2lkdGg9IjU1OCIgeD0iMTQ2MS41IiB5PSI3NjMuMjgxMyIvPjx0ZXh0IGZpbGw9IiMwMDAwMDAiIGZvbnQtZmFtaWx5PSJzYW5zLXNlcmlmIiBmb250LXNpemU9IjEyIiBsZW5ndGhBZGp1c3Q9InNwYWNpbmciIHRleHRMZW5ndGg9IjUzOCIgeD0iMTQ3MS41IiB5PSI3ODQuNjI1Ij5wcmVjaW9fdj1pbnB1dChmIkluZ3Jlc2UgZWwgcHJlY2lvIHtjb250YWRvcl9jbGF2ZTMrMX0gZGVsIHZlaCYjMjM3O2N1bG8gY2xhdmUgdGlwbyAzOiIpPC90ZXh0PjxyZWN0IGZpbGw9IiNGMUYxRjEiIGhlaWdodD0iMzIuODQzOCIgcng9IjEyLjUiIHJ5PSIxMi41IiBzdHlsZT0ic3Ryb2tlOiMxODE4MTg7c3Ryb2tlLXdpZHRoOjAuNTsiIHdpZHRoPSIxNjIiIHg9IjE2NTkuNSIgeT0iODMxLjEyNSIvPjx0ZXh0IGZpbGw9IiMwMDAwMDAiIGZvbnQtZmFtaWx5PSJzYW5zLXNlcmlmIiBmb250LXNpemU9IjEyIiBsZW5ndGhBZGp1c3Q9InNwYWNpbmciIHRleHRMZW5ndGg9IjE0MiIgeD0iMTY2OS41IiB5PSI4NTIuNDY4OCI+aW1wdWVzdG89cHJlY2lvX3YqMC4wNTwvdGV4dD48cmVjdCBmaWxsPSIjRjFGMUYxIiBoZWlnaHQ9IjMyLjg0MzgiIHJ4PSIxMi41IiByeT0iMTIuNSIgc3R5bGU9InN0cm9rZTojMTgxODE4O3N0cm9rZS13aWR0aDowLjU7IiB3aWR0aD0iNjMzIiB4PSIxNDI0IiB5PSI4OTguOTY4OCIvPjx0ZXh0IGZpbGw9IiMwMDAwMDAiIGZvbnQtZmFtaWx5PSJzYW5zLXNlcmlmIiBmb250LXNpemU9IjEyIiBsZW5ndGhBZGp1c3Q9InNwYWNpbmciIHRleHRMZW5ndGg9IjYxMyIgeD0iMTQzNCIgeT0iOTIwLjMxMjUiPnByaW50KGYiRWwgaW1wdWVzdG8ge2NvbnRhZG9yX2NsYXZlMysxfSBkZWwgdmVoJiMyMzc7Y3VsbyBkZSBjbGF2ZSB0aXBvIDMgZXM6IHtyb3VuZChpbXB1ZXN0bywgMil9Iik8L3RleHQ+PHJlY3QgZmlsbD0iI0YxRjFGMSIgaGVpZ2h0PSIzMi44NDM4IiByeD0iMTIuNSIgcnk9IjEyLjUiIHN0eWxlPSJzdHJva2U6IzE4MTgxODtzdHJva2Utd2lkdGg6MC41OyIgd2lkdGg9IjIxNyIgeD0iMTYzMiIgeT0iOTUxLjgxMjUiLz48dGV4dCBmaWxsPSIjMDAwMDAwIiBmb250LWZhbWlseT0ic2Fucy1zZXJpZiIgZm9udC1zaXplPSIxMiIgbGVuZ3RoQWRqdXN0PSJzcGFjaW5nIiB0ZXh0TGVuZ3RoPSIxOTciIHg9IjE2NDIiIHk9Ijk3My4xNTYzIj5zdW1hdG9yaWFfcG9yX2NsYXZlMys9aW1wdWVzdG88L3RleHQ+PHJlY3QgZmlsbD0iI0YxRjFGMSIgaGVpZ2h0PSIzMi44NDM4IiByeD0iMTIuNSIgcnk9IjEyLjUiIHN0eWxlPSJzdHJva2U6IzE4MTgxODtzdHJva2Utd2lkdGg6MC41OyIgd2lkdGg9IjEzNyIgeD0iMTY3MiIgeT0iMTAwNC42NTYzIi8+PHRleHQgZmlsbD0iIzAwMDAwMCIgZm9udC1mYW1pbHk9InNhbnMtc2VyaWYiIGZvbnQtc2l6ZT0iMTIiIGxlbmd0aEFkanVzdD0ic3BhY2luZyIgdGV4dExlbmd0aD0iMTE3IiB4PSIxNjgyIiB5PSIxMDI2Ij5jb250YWRvcl9jbGF2ZTMrPTE8L3RleHQ+PHBvbHlnb24gZmlsbD0iI0YxRjFGMSIgcG9pbnRzPSIxNjcxLjUsNzE5LjI4MTMsMTgwOS41LDcxOS4yODEzLDE4MjEuNSw3MzEuMjgxMywxODA5LjUsNzQzLjI4MTMsMTY3MS41LDc0My4yODEzLDE2NTkuNSw3MzEuMjgxMywxNjcxLjUsNzE5LjI4MTMiIHN0eWxlPSJzdHJva2U6IzE4MTgxODtzdHJva2Utd2lkdGg6MC41OyIvPjx0ZXh0IGZpbGw9IiMwMDAwMDAiIGZvbnQtZmFtaWx5PSJzYW5zLXNlcmlmIiBmb250LXNpemU9IjExIiBsZW5ndGhBZGp1c3Q9InNwYWNpbmciIHRleHRMZW5ndGg9IjEzOCIgeD0iMTY3MS41IiB5PSI3MzUuNzkzIj5jb250YWRvcl9jbGF2ZTMgJmx0OyB2YWxvcjwvdGV4dD48cmVjdCBmaWxsPSIjRjFGMUYxIiBoZWlnaHQ9IjMyLjg0MzgiIHJ4PSIxMi41IiByeT0iMTIuNSIgc3R5bGU9InN0cm9rZTojMTgxODE4O3N0cm9rZS13aWR0aDowLjU7IiB3aWR0aD0iMzM5IiB4PSIyMDgzIiB5PSI3ODguMjAzMSIvPjx0ZXh0IGZpbGw9IiMwMDAwMDAiIGZvbnQtZmFtaWx5PSJzYW5zLXNlcmlmIiBmb250LXNpemU9IjEyIiBsZW5ndGhBZGp1c3Q9InNwYWNpbmciIHRleHRMZW5ndGg9IjMxOSIgeD0iMjA5MyIgeT0iODA5LjU0NjkiPnByaW50KCJFc3RlIHRpcG8gZGUgY2xhdmUgZGUgdmVoJiMyMzc7Y3VsbyBubyBleGlzdGUiKTwvdGV4dD48cmVjdCBmaWxsPSIjRjFGMUYxIiBoZWlnaHQ9IjMyLjg0MzgiIHJ4PSIxMi41IiByeT0iMTIuNSIgc3R5bGU9InN0cm9rZTojMTgxODE4O3N0cm9rZS13aWR0aDowLjU7IiB3aWR0aD0iMTcxIiB4PSIyMTY3IiB5PSI4NTYuMDQ2OSIvPjx0ZXh0IGZpbGw9IiMwMDAwMDAiIGZvbnQtZmFtaWx5PSJzYW5zLXNlcmlmIiBmb250LXNpemU9IjEyIiBsZW5ndGhBZGp1c3Q9InNwYWNpbmciIHRleHRMZW5ndGg9IjE1MSIgeD0iMjE3NyIgeT0iODc3LjM5MDYiPnByaW50KCJNdWNoYXMgR3JhY2lhcyIpPC90ZXh0PjxyZWN0IGZpbGw9IiNGMUYxRjEiIGhlaWdodD0iMzIuODQzOCIgcng9IjEyLjUiIHJ5PSIxMi41IiBzdHlsZT0ic3Ryb2tlOiMxODE4MTg7c3Ryb2tlLXdpZHRoOjAuNTsiIHdpZHRoPSI0MTUiIHg9IjEwMTcuNSIgeT0iMTEwMSIvPjx0ZXh0IGZpbGw9IiMwMDAwMDAiIGZvbnQtZmFtaWx5PSJzYW5zLXNlcmlmIiBmb250LXNpemU9IjEyIiBsZW5ndGhBZGp1c3Q9InNwYWNpbmciIHRleHRMZW5ndGg9IjM5NSIgeD0iMTAyNy41IiB5PSIxMTIyLjM0MzgiPnByaW50KCImIzE5MTtEZXNlYSBzYWNhciBlbCBpbXB1ZXN0byBkZSBvdHJhIGNsYXZlIGRlIHZlaCYjMjM3O2N1bG8/Iik8L3RleHQ+PHJlY3QgZmlsbD0iI0YxRjFGMSIgaGVpZ2h0PSIzMi44NDM4IiByeD0iMTIuNSIgcnk9IjEyLjUiIHN0eWxlPSJzdHJva2U6IzE4MTgxODtzdHJva2Utd2lkdGg6MC41OyIgd2lkdGg9IjE4NyIgeD0iMTEzMS41IiB5PSIxMTUzLjg0MzgiLz48dGV4dCBmaWxsPSIjMDAwMDAwIiBmb250LWZhbWlseT0ic2Fucy1zZXJpZiIgZm9udC1zaXplPSIxMiIgbGVuZ3RoQWRqdXN0PSJzcGFjaW5nIiB0ZXh0TGVuZ3RoPSIxNjciIHg9IjExNDEuNSIgeT0iMTE3NS4xODc1Ij52YWxvcjI9aW5wdXQoIihTaSBvIE5vOikiKTwvdGV4dD48cG9seWdvbiBmaWxsPSIjRjFGMUYxIiBwb2ludHM9IjExODMsMTIwNi42ODc1LDEyNjcsMTIwNi42ODc1LDEyNzksMTIxOC42ODc1LDEyNjcsMTIzMC42ODc1LDExODMsMTIzMC42ODc1LDExNzEsMTIxOC42ODc1LDExODMsMTIwNi42ODc1IiBzdHlsZT0ic3Ryb2tlOiMxODE4MTg7c3Ryb2tlLXdpZHRoOjAuNTsiLz48dGV4dCBmaWxsPSIjMDAwMDAwIiBmb250LWZhbWlseT0ic2Fucy1zZXJpZiIgZm9udC1zaXplPSIxMSIgbGVuZ3RoQWRqdXN0PSJzcGFjaW5nIiB0ZXh0TGVuZ3RoPSI4NCIgeD0iMTE4MyIgeT0iMTIyMy4xOTkyIj52YWxvcjIgPT0gJ3NpJzwvdGV4dD48cmVjdCBmaWxsPSIjRjFGMUYxIiBoZWlnaHQ9IjMyLjg0MzgiIHJ4PSIxMi41IiByeT0iMTIuNSIgc3R5bGU9InN0cm9rZTojMTgxODE4O3N0cm9rZS13aWR0aDowLjU7IiB3aWR0aD0iNDY3IiB4PSI4MzMiIHk9IjEyNDAuNjg3NSIvPjx0ZXh0IGZpbGw9IiMwMDAwMDAiIGZvbnQtZmFtaWx5PSJzYW5zLXNlcmlmIiBmb250LXNpemU9IjEyIiBsZW5ndGhBZGp1c3Q9InNwYWNpbmciIHRleHRMZW5ndGg9IjQ0NyIgeD0iODQzIiB5PSIxMjYyLjAzMTMiPnByaW50KCImIzE5MTtRdSYjMjMzOyB0aXBvIGRlIGNsYXZlIGRlIFZlaCYjMjM3O2N1bG8gRGVzZWEgZGV0ZXJtaW5hciBlbCBpbXB1ZXN0byIpPC90ZXh0PjxyZWN0IGZpbGw9IiNGMUYxRjEiIGhlaWdodD0iMzIuODQzOCIgcng9IjEyLjUiIHJ5PSIxMi41IiBzdHlsZT0ic3Ryb2tlOiMxODE4MTg7c3Ryb2tlLXdpZHRoOjAuNTsiIHdpZHRoPSIxNDEiIHg9Ijk5NiIgeT0iMTI5My41MzEzIi8+PHRleHQgZmlsbD0iIzAwMDAwMCIgZm9udC1mYW1pbHk9InNhbnMtc2VyaWYiIGZvbnQtc2l6ZT0iMTIiIGxlbmd0aEFkanVzdD0ic3BhY2luZyIgdGV4dExlbmd0aD0iMTIxIiB4PSIxMDA2IiB5PSIxMzE0Ljg3NSI+cHJpbnQoIjEpIENsYXZlIDEiKTwvdGV4dD48cmVjdCBmaWxsPSIjRjFGMUYxIiBoZWlnaHQ9IjMyLjg0MzgiIHJ4PSIxMi41IiByeT0iMTIuNSIgc3R5bGU9InN0cm9rZTojMTgxODE4O3N0cm9rZS13aWR0aDowLjU7IiB3aWR0aD0iMTQxIiB4PSI5OTYiIHk9IjEzNDYuMzc1Ii8+PHRleHQgZmlsbD0iIzAwMDAwMCIgZm9udC1mYW1pbHk9InNhbnMtc2VyaWYiIGZvbnQtc2l6ZT0iMTIiIGxlbmd0aEFkanVzdD0ic3BhY2luZyIgdGV4dExlbmd0aD0iMTIxIiB4PSIxMDA2IiB5PSIxMzY3LjcxODgiPnByaW50KCIyKSBDbGF2ZSAyIik8L3RleHQ+PHJlY3QgZmlsbD0iI0YxRjFGMSIgaGVpZ2h0PSIzMi44NDM4IiByeD0iMTIuNSIgcnk9IjEyLjUiIHN0eWxlPSJzdHJva2U6IzE4MTgxODtzdHJva2Utd2lkdGg6MC41OyIgd2lkdGg9IjE0MSIgeD0iOTk2IiB5PSIxMzk5LjIxODgiLz48dGV4dCBmaWxsPSIjMDAwMDAwIiBmb250LWZhbWlseT0ic2Fucy1zZXJpZiIgZm9udC1zaXplPSIxMiIgbGVuZ3RoQWRqdXN0PSJzcGFjaW5nIiB0ZXh0TGVuZ3RoPSIxMjEiIHg9IjEwMDYiIHk9IjE0MjAuNTYyNSI+cHJpbnQoIjMpIENsYXZlIDMiKTwvdGV4dD48cmVjdCBmaWxsPSIjRjFGMUYxIiBoZWlnaHQ9IjMyLjg0MzgiIHJ4PSIxMi41IiByeT0iMTIuNSIgc3R5bGU9InN0cm9rZTojMTgxODE4O3N0cm9rZS13aWR0aDowLjU7IiB3aWR0aD0iNTY0IiB4PSI3ODQuNSIgeT0iMTQ1Mi4wNjI1Ii8+PHRleHQgZmlsbD0iIzAwMDAwMCIgZm9udC1mYW1pbHk9InNhbnMtc2VyaWYiIGZvbnQtc2l6ZT0iMTIiIGxlbmd0aEFkanVzdD0ic3BhY2luZyIgdGV4dExlbmd0aD0iNTQ0IiB4PSI3OTQuNSIgeT0iMTQ3My40MDYzIj50aXBvX2NsYXZlPWlucHV0KCJJbmdyZXNlIGxhIGNsYXZlIGRlbCB2ZWgmIzIzNztjdWxvIHF1ZSBkZXNlYSBkZXRlcm1pbmFyIGVsIGltcHVlc3RvOiIpPC90ZXh0Pjxwb2x5Z29uIGZpbGw9IiNGMUYxRjEiIHBvaW50cz0iMTEyNiw1MjUuNTkzOCwxMzI0LDUyNS41OTM4LDEzMzYsNTM3LjU5MzgsMTMyNCw1NDkuNTkzOCwxMTI2LDU0OS41OTM4LDExMTQsNTM3LjU5MzgsMTEyNiw1MjUuNTkzOCIgc3R5bGU9InN0cm9rZTojMTgxODE4O3N0cm9rZS13aWR0aDowLjU7Ii8+PHRleHQgZmlsbD0iIzAwMDAwMCIgZm9udC1mYW1pbHk9InNhbnMtc2VyaWYiIGZvbnQtc2l6ZT0iMTEiIGxlbmd0aEFkanVzdD0ic3BhY2luZyIgdGV4dExlbmd0aD0iMTk4IiB4PSIxMTI2IiB5PSI1NDIuMTA1NSI+dGlwb19jbGF2ZSAmZ3Q7IDAgYW5kIHRpcG9fY2xhdmUgJmx0OyA0PC90ZXh0PjxyZWN0IGZpbGw9IiNGMUYxRjEiIGhlaWdodD0iMzIuODQzOCIgcng9IjEyLjUiIHJ5PSIxMi41IiBzdHlsZT0ic3Ryb2tlOiMxODE4MTg7c3Ryb2tlLXdpZHRoOjAuNTsiIHdpZHRoPSI0OTQiIHg9Ijk3OCIgeT0iMTUyNi45MDYzIi8+PHRleHQgZmlsbD0iIzAwMDAwMCIgZm9udC1mYW1pbHk9InNhbnMtc2VyaWYiIGZvbnQtc2l6ZT0iMTIiIGxlbmd0aEFkanVzdD0ic3BhY2luZyIgdGV4dExlbmd0aD0iNDc0IiB4PSI5ODgiIHk9IjE1NDguMjUiPnN1bWF0b3JpYT1zdW1hdG9yaWFfcG9yX2NsYXZlMStzdW1hdG9yaWFfcG9yX2NsYXZlMitzdW1hdG9yaWFfcG9yX2NsYXZlMzwvdGV4dD48cmVjdCBmaWxsPSIjRjFGMUYxIiBoZWlnaHQ9IjMyLjg0MzgiIHJ4PSIxMi41IiByeT0iMTIuNSIgc3R5bGU9InN0cm9rZTojMTgxODE4O3N0cm9rZS13aWR0aDowLjU7IiB3aWR0aD0iNTY5IiB4PSI5NDAuNSIgeT0iMTU3OS43NSIvPjx0ZXh0IGZpbGw9IiMwMDAwMDAiIGZvbnQtZmFtaWx5PSJzYW5zLXNlcmlmIiBmb250LXNpemU9IjEyIiBsZW5ndGhBZGp1c3Q9InNwYWNpbmciIHRleHRMZW5ndGg9IjU0OSIgeD0iOTUwLjUiIHk9IjE2MDEuMDkzOCI+cHJpbnQoZiJFbCBJbXB1ZXN0byB0b3RhbCBkZWwgdmVoJiMyMzc7Y3VsbyBjbGF2ZSAxIGVzOiB7cm91bmQoc3VtYXRvcmlhX3Bvcl9jbGF2ZTEsIDIpfSIpPC90ZXh0PjxyZWN0IGZpbGw9IiNGMUYxRjEiIGhlaWdodD0iMzIuODQzOCIgcng9IjEyLjUiIHJ5PSIxMi41IiBzdHlsZT0ic3Ryb2tlOiMxODE4MTg7c3Ryb2tlLXdpZHRoOjAuNTsiIHdpZHRoPSI1NjkiIHg9Ijk0MC41IiB5PSIxNjMyLjU5MzgiLz48dGV4dCBmaWxsPSIjMDAwMDAwIiBmb250LWZhbWlseT0ic2Fucy1zZXJpZiIgZm9udC1zaXplPSIxMiIgbGVuZ3RoQWRqdXN0PSJzcGFjaW5nIiB0ZXh0TGVuZ3RoPSI1NDkiIHg9Ijk1MC41IiB5PSIxNjUzLjkzNzUiPnByaW50KGYiRWwgSW1wdWVzdG8gdG90YWwgZGVsIHZlaCYjMjM3O2N1bG8gY2xhdmUgMiBlczoge3JvdW5kKHN1bWF0b3JpYV9wb3JfY2xhdmUyLCAyKX0iKTwvdGV4dD48cmVjdCBmaWxsPSIjRjFGMUYxIiBoZWlnaHQ9IjMyLjg0MzgiIHJ4PSIxMi41IiByeT0iMTIuNSIgc3R5bGU9InN0cm9rZTojMTgxODE4O3N0cm9rZS13aWR0aDowLjU7IiB3aWR0aD0iNTY5IiB4PSI5NDAuNSIgeT0iMTY4NS40Mzc1Ii8+PHRleHQgZmlsbD0iIzAwMDAwMCIgZm9udC1mYW1pbHk9InNhbnMtc2VyaWYiIGZvbnQtc2l6ZT0iMTIiIGxlbmd0aEFkanVzdD0ic3BhY2luZyIgdGV4dExlbmd0aD0iNTQ5IiB4PSI5NTAuNSIgeT0iMTcwNi43ODEzIj5wcmludChmIkVsIEltcHVlc3RvIHRvdGFsIGRlbCB2ZWgmIzIzNztjdWxvIGNsYXZlIDMgZXM6IHtyb3VuZChzdW1hdG9yaWFfcG9yX2NsYXZlMywgMil9Iik8L3RleHQ+PHJlY3QgZmlsbD0iI0YxRjFGMSIgaGVpZ2h0PSIzMi44NDM4IiByeD0iMTIuNSIgcnk9IjEyLjUiIHN0eWxlPSJzdHJva2U6IzE4MTgxODtzdHJva2Utd2lkdGg6MC41OyIgd2lkdGg9IjY0MiIgeD0iOTA0IiB5PSIxNzM4LjI4MTMiLz48dGV4dCBmaWxsPSIjMDAwMDAwIiBmb250LWZhbWlseT0ic2Fucy1zZXJpZiIgZm9udC1zaXplPSIxMiIgbGVuZ3RoQWRqdXN0PSJzcGFjaW5nIiB0ZXh0TGVuZ3RoPSI2MjIiIHg9IjkxNCIgeT0iMTc1OS42MjUiPnByaW50KGYiRWwgSW1wdWVzdG8gdG90YWwgZGUgdG9kb3MgbG9zIHZlaCYjMjM3O2N1bG9zIHF1ZSBkZWJlcyBwYWdhciBlcyBkZToge3JvdW5kKHN1bWF0b3JpYSwgMil9Iik8L3RleHQ+PHJlY3QgZmlsbD0iI0YxRjFGMSIgaGVpZ2h0PSIzMi44NDM4IiByeD0iMTIuNSIgcnk9IjEyLjUiIHN0eWxlPSJzdHJva2U6IzE4MTgxODtzdHJva2Utd2lkdGg6MC41OyIgd2lkdGg9IjE3MSIgeD0iMTEzOS41IiB5PSIxNzkxLjEyNSIvPjx0ZXh0IGZpbGw9IiMwMDAwMDAiIGZvbnQtZmFtaWx5PSJzYW5zLXNlcmlmIiBmb250LXNpemU9IjEyIiBsZW5ndGhBZGp1c3Q9InNwYWNpbmciIHRleHRMZW5ndGg9IjE1MSIgeD0iMTE0OS41IiB5PSIxODEyLjQ2ODgiPnByaW50KCJNdWNoYXMgR3JhY2lhcyIpPC90ZXh0PjxlbGxpcHNlIGN4PSIxMjI1IiBjeT0iMTg1NC45Njg4IiBmaWxsPSJub25lIiByeD0iMTEiIHJ5PSIxMSIgc3R5bGU9InN0cm9rZTojMjIyMjIyO3N0cm9rZS13aWR0aDoxLjA7Ii8+PGVsbGlwc2UgY3g9IjEyMjUiIGN5PSIxODU0Ljk2ODgiIGZpbGw9IiMyMjIyMjIiIHJ4PSI2IiByeT0iNiIgc3R5bGU9InN0cm9rZTojMjIyMjIyO3N0cm9rZS13aWR0aDoxLjA7Ii8+PGxpbmUgc3R5bGU9InN0cm9rZTojMTgxODE4O3N0cm9rZS13aWR0aDoxLjA7IiB4MT0iMTIyNSIgeDI9IjEyMjUiIHkxPSIzMCIgeTI9IjUwIi8+PHBvbHlnb24gZmlsbD0iIzE4MTgxOCIgcG9pbnRzPSIxMjIxLDQwLDEyMjUsNTAsMTIyOSw0MCwxMjI1LDQ0IiBzdHlsZT0ic3Ryb2tlOiMxODE4MTg7c3Ryb2tlLXdpZHRoOjEuMDsiLz48bGluZSBzdHlsZT0ic3Ryb2tlOiMxODE4MTg7c3Ryb2tlLXdpZHRoOjEuMDsiIHgxPSIxMjI1IiB4Mj0iMTIyNSIgeTE9IjgyLjg0MzgiIHkyPSIxMDIuODQzOCIvPjxwb2x5Z29uIGZpbGw9IiMxODE4MTgiIHBvaW50cz0iMTIyMSw5Mi44NDM4LDEyMjUsMTAyLjg0MzgsMTIyOSw5Mi44NDM4LDEyMjUsOTYuODQzOCIgc3R5bGU9InN0cm9rZTojMTgxODE4O3N0cm9rZS13aWR0aDoxLjA7Ii8+PGxpbmUgc3R5bGU9InN0cm9rZTojMTgxODE4O3N0cm9rZS13aWR0aDoxLjA7IiB4MT0iMTIyNSIgeDI9IjEyMjUiIHkxPSIxMzUuNjg3NSIgeTI9IjE1NS42ODc1Ii8+PHBvbHlnb24gZmlsbD0iIzE4MTgxOCIgcG9pbnRzPSIxMjIxLDE0NS42ODc1LDEyMjUsMTU1LjY4NzUsMTIyOSwxNDUuNjg3NSwxMjI1LDE0OS42ODc1IiBzdHlsZT0ic3Ryb2tlOiMxODE4MTg7c3Ryb2tlLXdpZHRoOjEuMDsiLz48bGluZSBzdHlsZT0ic3Ryb2tlOiMxODE4MTg7c3Ryb2tlLXdpZHRoOjEuMDsiIHgxPSIxMjI1IiB4Mj0iMTIyNSIgeTE9IjE4OC41MzEzIiB5Mj0iMjA4LjUzMTMiLz48cG9seWdvbiBmaWxsPSIjMTgxODE4IiBwb2ludHM9IjEyMjEsMTk4LjUzMTMsMTIyNSwyMDguNTMxMywxMjI5LDE5OC41MzEzLDEyMjUsMjAyLjUzMTMiIHN0eWxlPSJzdHJva2U6IzE4MTgxODtzdHJva2Utd2lkdGg6MS4wOyIvPjxsaW5lIHN0eWxlPSJzdHJva2U6IzE4MTgxODtzdHJva2Utd2lkdGg6MS4wOyIgeDE9IjEyMjUiIHgyPSIxMjI1IiB5MT0iMjQxLjM3NSIgeTI9IjI2MS4zNzUiLz48cG9seWdvbiBmaWxsPSIjMTgxODE4IiBwb2ludHM9IjEyMjEsMjUxLjM3NSwxMjI1LDI2MS4zNzUsMTIyOSwyNTEuMzc1LDEyMjUsMjU1LjM3NSIgc3R5bGU9InN0cm9rZTojMTgxODE4O3N0cm9rZS13aWR0aDoxLjA7Ii8+PGxpbmUgc3R5bGU9InN0cm9rZTojMTgxODE4O3N0cm9rZS13aWR0aDoxLjA7IiB4MT0iMTIyNSIgeDI9IjEyMjUiIHkxPSIyOTQuMjE4OCIgeTI9IjMxNC4yMTg4Ii8+PHBvbHlnb24gZmlsbD0iIzE4MTgxOCIgcG9pbnRzPSIxMjIxLDMwNC4yMTg4LDEyMjUsMzE0LjIxODgsMTIyOSwzMDQuMjE4OCwxMjI1LDMwOC4yMTg4IiBzdHlsZT0ic3Ryb2tlOiMxODE4MTg7c3Ryb2tlLXdpZHRoOjEuMDsiLz48bGluZSBzdHlsZT0ic3Ryb2tlOiMxODE4MTg7c3Ryb2tlLXdpZHRoOjEuMDsiIHgxPSIxMjI1IiB4Mj0iMTIyNSIgeTE9IjM0Ny4wNjI1IiB5Mj0iMzY3LjA2MjUiLz48cG9seWdvbiBmaWxsPSIjMTgxODE4IiBwb2ludHM9IjEyMjEsMzU3LjA2MjUsMTIyNSwzNjcuMDYyNSwxMjI5LDM1Ny4wNjI1LDEyMjUsMzYxLjA2MjUiIHN0eWxlPSJzdHJva2U6IzE4MTgxODtzdHJva2Utd2lkdGg6MS4wOyIvPjxsaW5lIHN0eWxlPSJzdHJva2U6IzE4MTgxODtzdHJva2Utd2lkdGg6MS4wOyIgeDE9IjEyMjUiIHgyPSIxMjI1IiB5MT0iMzk5LjkwNjMiIHkyPSI0MTkuOTA2MyIvPjxwb2x5Z29uIGZpbGw9IiMxODE4MTgiIHBvaW50cz0iMTIyMSw0MDkuOTA2MywxMjI1LDQxOS45MDYzLDEyMjksNDA5LjkwNjMsMTIyNSw0MTMuOTA2MyIgc3R5bGU9InN0cm9rZTojMTgxODE4O3N0cm9rZS13aWR0aDoxLjA7Ii8+PGxpbmUgc3R5bGU9InN0cm9rZTojMTgxODE4O3N0cm9rZS13aWR0aDoxLjA7IiB4MT0iMTIyNSIgeDI9IjEyMjUiIHkxPSI0NTIuNzUiIHkyPSI0NzIuNzUiLz48cG9seWdvbiBmaWxsPSIjMTgxODE4IiBwb2ludHM9IjEyMjEsNDYyLjc1LDEyMjUsNDcyLjc1LDEyMjksNDYyLjc1LDEyMjUsNDY2Ljc1IiBzdHlsZT0ic3Ryb2tlOiMxODE4MTg7c3Ryb2tlLXdpZHRoOjEuMDsiLz48bGluZSBzdHlsZT0ic3Ryb2tlOiMxODE4MTg7c3Ryb2tlLXdpZHRoOjEuMDsiIHgxPSIzNzYuNSIgeDI9IjM3Ni41IiB5MT0iNjQ2LjQzNzUiIHkyPSI2NjYuNDM3NSIvPjxwb2x5Z29uIGZpbGw9IiMxODE4MTgiIHBvaW50cz0iMzcyLjUsNjU2LjQzNzUsMzc2LjUsNjY2LjQzNzUsMzgwLjUsNjU2LjQzNzUsMzc2LjUsNjYwLjQzNzUiIHN0eWxlPSJzdHJva2U6IzE4MTgxODtzdHJva2Utd2lkdGg6MS4wOyIvPjxsaW5lIHN0eWxlPSJzdHJva2U6IzE4MTgxODtzdHJva2Utd2lkdGg6MS4wOyIgeDE9IjM3Ni41IiB4Mj0iMzc2LjUiIHkxPSI3OTYuMTI1IiB5Mj0iODMxLjEyNSIvPjxwb2x5Z29uIGZpbGw9IiMxODE4MTgiIHBvaW50cz0iMzcyLjUsODIxLjEyNSwzNzYuNSw4MzEuMTI1LDM4MC41LDgyMS4xMjUsMzc2LjUsODI1LjEyNSIgc3R5bGU9InN0cm9rZTojMTgxODE4O3N0cm9rZS13aWR0aDoxLjA7Ii8+PGxpbmUgc3R5bGU9InN0cm9rZTojMTgxODE4O3N0cm9rZS13aWR0aDoxLjA7IiB4MT0iMzc2LjUiIHgyPSIzNzYuNSIgeTE9Ijg2My45Njg4IiB5Mj0iODk4Ljk2ODgiLz48cG9seWdvbiBmaWxsPSIjMTgxODE4IiBwb2ludHM9IjM3Mi41LDg4OC45Njg4LDM3Ni41LDg5OC45Njg4LDM4MC41LDg4OC45Njg4LDM3Ni41LDg5Mi45Njg4IiBzdHlsZT0ic3Ryb2tlOiMxODE4MTg7c3Ryb2tlLXdpZHRoOjEuMDsiLz48bGluZSBzdHlsZT0ic3Ryb2tlOiMxODE4MTg7c3Ryb2tlLXdpZHRoOjEuMDsiIHgxPSIzNzYuNSIgeDI9IjM3Ni41IiB5MT0iOTMxLjgxMjUiIHkyPSI5NTEuODEyNSIvPjxwb2x5Z29uIGZpbGw9IiMxODE4MTgiIHBvaW50cz0iMzcyLjUsOTQxLjgxMjUsMzc2LjUsOTUxLjgxMjUsMzgwLjUsOTQxLjgxMjUsMzc2LjUsOTQ1LjgxMjUiIHN0eWxlPSJzdHJva2U6IzE4MTgxODtzdHJva2Utd2lkdGg6MS4wOyIvPjxsaW5lIHN0eWxlPSJzdHJva2U6IzE4MTgxODtzdHJva2Utd2lkdGg6MS4wOyIgeDE9IjM3Ni41IiB4Mj0iMzc2LjUiIHkxPSI5ODQuNjU2MyIgeTI9IjEwMDQuNjU2MyIvPjxwb2x5Z29uIGZpbGw9IiMxODE4MTgiIHBvaW50cz0iMzcyLjUsOTk0LjY1NjMsMzc2LjUsMTAwNC42NTYzLDM4MC41LDk5NC42NTYzLDM3Ni41LDk5OC42NTYzIiBzdHlsZT0ic3Ryb2tlOiMxODE4MTg7c3Ryb2tlLXdpZHRoOjEuMDsiLz48bGluZSBzdHlsZT0ic3Ryb2tlOiMxODE4MTg7c3Ryb2tlLXdpZHRoOjEuMDsiIHgxPSIzNzYuNSIgeDI9IjM3Ni41IiB5MT0iNzQzLjI4MTMiIHkyPSI3NjMuMjgxMyIvPjxwb2x5Z29uIGZpbGw9IiMxODE4MTgiIHBvaW50cz0iMzcyLjUsNzUzLjI4MTMsMzc2LjUsNzYzLjI4MTMsMzgwLjUsNzUzLjI4MTMsMzc2LjUsNzU3LjI4MTMiIHN0eWxlPSJzdHJva2U6IzE4MTgxODtzdHJva2Utd2lkdGg6MS4wOyIvPjxsaW5lIHN0eWxlPSJzdHJva2U6IzE4MTgxODtzdHJva2Utd2lkdGg6MS4wOyIgeDE9IjM3Ni41IiB4Mj0iMzc2LjUiIHkxPSIxMDM3LjUiIHkyPSIxMDQ5Ii8+PGxpbmUgc3R5bGU9InN0cm9rZTojMTgxODE4O3N0cm9rZS13aWR0aDoxLjA7IiB4MT0iMzc2LjUiIHgyPSI3MDUiIHkxPSIxMDQ5IiB5Mj0iMTA0OSIvPjxwb2x5Z29uIGZpbGw9IiMxODE4MTgiIHBvaW50cz0iNzAxLDkxMy4zOTA2LDcwNSw5MDMuMzkwNiw3MDksOTEzLjM5MDYsNzA1LDkwOS4zOTA2IiBzdHlsZT0ic3Ryb2tlOiMxODE4MTg7c3Ryb2tlLXdpZHRoOjEuMDsiLz48bGluZSBzdHlsZT0ic3Ryb2tlOiMxODE4MTg7c3Ryb2tlLXdpZHRoOjEuMDsiIHgxPSI3MDUiIHgyPSI3MDUiIHkxPSI3MzEuMjgxMyIgeTI9IjEwNDkiLz48bGluZSBzdHlsZT0ic3Ryb2tlOiMxODE4MTg7c3Ryb2tlLXdpZHRoOjEuMDsiIHgxPSI3MDUiIHgyPSI0NTcuNSIgeTE9IjczMS4yODEzIiB5Mj0iNzMxLjI4MTMiLz48cG9seWdvbiBmaWxsPSIjMTgxODE4IiBwb2ludHM9IjQ2Ny41LDcyNy4yODEzLDQ1Ny41LDczMS4yODEzLDQ2Ny41LDczNS4yODEzLDQ2My41LDczMS4yODEzIiBzdHlsZT0ic3Ryb2tlOiMxODE4MTg7c3Ryb2tlLXdpZHRoOjEuMDsiLz48bGluZSBzdHlsZT0ic3Ryb2tlOiMxODE4MTg7c3Ryb2tlLXdpZHRoOjEuMDsiIHgxPSIyOTUuNSIgeDI9IjQ4IiB5MT0iNzMxLjI4MTMiIHkyPSI3MzEuMjgxMyIvPjxwb2x5Z29uIGZpbGw9IiMxODE4MTgiIHBvaW50cz0iNDQsODk5LjM5MDYsNDgsOTA5LjM5MDYsNTIsODk5LjM5MDYsNDgsOTAzLjM5MDYiIHN0eWxlPSJzdHJva2U6IzE4MTgxODtzdHJva2Utd2lkdGg6MS4wOyIvPjxsaW5lIHN0eWxlPSJzdHJva2U6IzE4MTgxODtzdHJva2Utd2lkdGg6MS4wOyIgeDE9IjQ4IiB4Mj0iNDgiIHkxPSI3MzEuMjgxMyIgeTI9IjEwNjEiLz48bGluZSBzdHlsZT0ic3Ryb2tlOiMxODE4MTg7c3Ryb2tlLXdpZHRoOjEuMDsiIHgxPSI0OCIgeDI9IjM3Ni41IiB5MT0iMTA2MSIgeTI9IjEwNjEiLz48bGluZSBzdHlsZT0ic3Ryb2tlOiMxODE4MTg7c3Ryb2tlLXdpZHRoOjEuMDsiIHgxPSIzNzYuNSIgeDI9IjM3Ni41IiB5MT0iMTA2MSIgeTI9IjEwODEiLz48cG9seWdvbiBmaWxsPSIjMTgxODE4IiBwb2ludHM9IjM3Mi41LDEwNzEsMzc2LjUsMTA4MSwzODAuNSwxMDcxLDM3Ni41LDEwNzUiIHN0eWxlPSJzdHJva2U6IzE4MTgxODtzdHJva2Utd2lkdGg6MS4wOyIvPjxsaW5lIHN0eWxlPSJzdHJva2U6IzE4MTgxODtzdHJva2Utd2lkdGg6MS4wOyIgeDE9IjM3Ni41IiB4Mj0iMzc2LjUiIHkxPSI2OTkuMjgxMyIgeTI9IjcxOS4yODEzIi8+PHBvbHlnb24gZmlsbD0iIzE4MTgxOCIgcG9pbnRzPSIzNzIuNSw3MDkuMjgxMywzNzYuNSw3MTkuMjgxMywzODAuNSw3MDkuMjgxMywzNzYuNSw3MTMuMjgxMyIgc3R5bGU9InN0cm9rZTojMTgxODE4O3N0cm9rZS13aWR0aDoxLjA7Ii8+PGxpbmUgc3R5bGU9InN0cm9rZTojMTgxODE4O3N0cm9rZS13aWR0aDoxLjA7IiB4MT0iMTA1MS41IiB4Mj0iMTA1MS41IiB5MT0iNjQ2LjQzNzUiIHkyPSI2NjYuNDM3NSIvPjxwb2x5Z29uIGZpbGw9IiMxODE4MTgiIHBvaW50cz0iMTA0Ny41LDY1Ni40Mzc1LDEwNTEuNSw2NjYuNDM3NSwxMDU1LjUsNjU2LjQzNzUsMTA1MS41LDY2MC40Mzc1IiBzdHlsZT0ic3Ryb2tlOiMxODE4MTg7c3Ryb2tlLXdpZHRoOjEuMDsiLz48bGluZSBzdHlsZT0ic3Ryb2tlOiMxODE4MTg7c3Ryb2tlLXdpZHRoOjEuMDsiIHgxPSIxMDUxLjUiIHgyPSIxMDUxLjUiIHkxPSI3OTYuMTI1IiB5Mj0iODMxLjEyNSIvPjxwb2x5Z29uIGZpbGw9IiMxODE4MTgiIHBvaW50cz0iMTA0Ny41LDgyMS4xMjUsMTA1MS41LDgzMS4xMjUsMTA1NS41LDgyMS4xMjUsMTA1MS41LDgyNS4xMjUiIHN0eWxlPSJzdHJva2U6IzE4MTgxODtzdHJva2Utd2lkdGg6MS4wOyIvPjxsaW5lIHN0eWxlPSJzdHJva2U6IzE4MTgxODtzdHJva2Utd2lkdGg6MS4wOyIgeDE9IjEwNTEuNSIgeDI9IjEwNTEuNSIgeTE9Ijg2My45Njg4IiB5Mj0iODk4Ljk2ODgiLz48cG9seWdvbiBmaWxsPSIjMTgxODE4IiBwb2ludHM9IjEwNDcuNSw4ODguOTY4OCwxMDUxLjUsODk4Ljk2ODgsMTA1NS41LDg4OC45Njg4LDEwNTEuNSw4OTIuOTY4OCIgc3R5bGU9InN0cm9rZTojMTgxODE4O3N0cm9rZS13aWR0aDoxLjA7Ii8+PGxpbmUgc3R5bGU9InN0cm9rZTojMTgxODE4O3N0cm9rZS13aWR0aDoxLjA7IiB4MT0iMTA1MS41IiB4Mj0iMTA1MS41IiB5MT0iOTMxLjgxMjUiIHkyPSI5NTEuODEyNSIvPjxwb2x5Z29uIGZpbGw9IiMxODE4MTgiIHBvaW50cz0iMTA0Ny41LDk0MS44MTI1LDEwNTEuNSw5NTEuODEyNSwxMDU1LjUsOTQxLjgxMjUsMTA1MS41LDk0NS44MTI1IiBzdHlsZT0ic3Ryb2tlOiMxODE4MTg7c3Ryb2tlLXdpZHRoOjEuMDsiLz48bGluZSBzdHlsZT0ic3Ryb2tlOiMxODE4MTg7c3Ryb2tlLXdpZHRoOjEuMDsiIHgxPSIxMDUxLjUiIHgyPSIxMDUxLjUiIHkxPSI5ODQuNjU2MyIgeTI9IjEwMDQuNjU2MyIvPjxwb2x5Z29uIGZpbGw9IiMxODE4MTgiIHBvaW50cz0iMTA0Ny41LDk5NC42NTYzLDEwNTEuNSwxMDA0LjY1NjMsMTA1NS41LDk5NC42NTYzLDEwNTEuNSw5OTguNjU2MyIgc3R5bGU9InN0cm9rZTojMTgxODE4O3N0cm9rZS13aWR0aDoxLjA7Ii8+PGxpbmUgc3R5bGU9InN0cm9rZTojMTgxODE4O3N0cm9rZS13aWR0aDoxLjA7IiB4MT0iMTA1MS41IiB4Mj0iMTA1MS41IiB5MT0iNzQzLjI4MTMiIHkyPSI3NjMuMjgxMyIvPjxwb2x5Z29uIGZpbGw9IiMxODE4MTgiIHBvaW50cz0iMTA0Ny41LDc1My4yODEzLDEwNTEuNSw3NjMuMjgxMywxMDU1LjUsNzUzLjI4MTMsMTA1MS41LDc1Ny4yODEzIiBzdHlsZT0ic3Ryb2tlOiMxODE4MTg7c3Ryb2tlLXdpZHRoOjEuMDsiLz48bGluZSBzdHlsZT0ic3Ryb2tlOiMxODE4MTg7c3Ryb2tlLXdpZHRoOjEuMDsiIHgxPSIxMDUxLjUiIHgyPSIxMDUxLjUiIHkxPSIxMDM3LjUiIHkyPSIxMDQ5Ii8+PGxpbmUgc3R5bGU9InN0cm9rZTojMTgxODE4O3N0cm9rZS13aWR0aDoxLjA7IiB4MT0iMTA1MS41IiB4Mj0iMTM4MCIgeTE9IjEwNDkiIHkyPSIxMDQ5Ii8+PHBvbHlnb24gZmlsbD0iIzE4MTgxOCIgcG9pbnRzPSIxMzc2LDkxMy4zOTA2LDEzODAsOTAzLjM5MDYsMTM4NCw5MTMuMzkwNiwxMzgwLDkwOS4zOTA2IiBzdHlsZT0ic3Ryb2tlOiMxODE4MTg7c3Ryb2tlLXdpZHRoOjEuMDsiLz48bGluZSBzdHlsZT0ic3Ryb2tlOiMxODE4MTg7c3Ryb2tlLXdpZHRoOjEuMDsiIHgxPSIxMzgwIiB4Mj0iMTM4MCIgeTE9IjczMS4yODEzIiB5Mj0iMTA0OSIvPjxsaW5lIHN0eWxlPSJzdHJva2U6IzE4MTgxODtzdHJva2Utd2lkdGg6MS4wOyIgeDE9IjEzODAiIHgyPSIxMTMyLjUiIHkxPSI3MzEuMjgxMyIgeTI9IjczMS4yODEzIi8+PHBvbHlnb24gZmlsbD0iIzE4MTgxOCIgcG9pbnRzPSIxMTQyLjUsNzI3LjI4MTMsMTEzMi41LDczMS4yODEzLDExNDIuNSw3MzUuMjgxMywxMTM4LjUsNzMxLjI4MTMiIHN0eWxlPSJzdHJva2U6IzE4MTgxODtzdHJva2Utd2lkdGg6MS4wOyIvPjxsaW5lIHN0eWxlPSJzdHJva2U6IzE4MTgxODtzdHJva2Utd2lkdGg6MS4wOyIgeDE9Ijk3MC41IiB4Mj0iNzIzIiB5MT0iNzMxLjI4MTMiIHkyPSI3MzEuMjgxMyIvPjxwb2x5Z29uIGZpbGw9IiMxODE4MTgiIHBvaW50cz0iNzE5LDg5OS4zOTA2LDcyMyw5MDkuMzkwNiw3MjcsODk5LjM5MDYsNzIzLDkwMy4zOTA2IiBzdHlsZT0ic3Ryb2tlOiMxODE4MTg7c3Ryb2tlLXdpZHRoOjEuMDsiLz48bGluZSBzdHlsZT0ic3Ryb2tlOiMxODE4MTg7c3Ryb2tlLXdpZHRoOjEuMDsiIHgxPSI3MjMiIHgyPSI3MjMiIHkxPSI3MzEuMjgxMyIgeTI9IjEwNjEiLz48bGluZSBzdHlsZT0ic3Ryb2tlOiMxODE4MTg7c3Ryb2tlLXdpZHRoOjEuMDsiIHgxPSI3MjMiIHgyPSIxMDUxLjUiIHkxPSIxMDYxIiB5Mj0iMTA2MSIvPjxsaW5lIHN0eWxlPSJzdHJva2U6IzE4MTgxODtzdHJva2Utd2lkdGg6MS4wOyIgeDE9IjEwNTEuNSIgeDI9IjEwNTEuNSIgeTE9IjEwNjEiIHkyPSIxMDgxIi8+PHBvbHlnb24gZmlsbD0iIzE4MTgxOCIgcG9pbnRzPSIxMDQ3LjUsMTA3MSwxMDUxLjUsMTA4MSwxMDU1LjUsMTA3MSwxMDUxLjUsMTA3NSIgc3R5bGU9InN0cm9rZTojMTgxODE4O3N0cm9rZS13aWR0aDoxLjA7Ii8+PGxpbmUgc3R5bGU9InN0cm9rZTojMTgxODE4O3N0cm9rZS13aWR0aDoxLjA7IiB4MT0iMTA1MS41IiB4Mj0iMTA1MS41IiB5MT0iNjk5LjI4MTMiIHkyPSI3MTkuMjgxMyIvPjxwb2x5Z29uIGZpbGw9IiMxODE4MTgiIHBvaW50cz0iMTA0Ny41LDcwOS4yODEzLDEwNTEuNSw3MTkuMjgxMywxMDU1LjUsNzA5LjI4MTMsMTA1MS41LDcxMy4yODEzIiBzdHlsZT0ic3Ryb2tlOiMxODE4MTg7c3Ryb2tlLXdpZHRoOjEuMDsiLz48bGluZSBzdHlsZT0ic3Ryb2tlOiMxODE4MTg7c3Ryb2tlLXdpZHRoOjEuMDsiIHgxPSIxNzQwLjUiIHgyPSIxNzQwLjUiIHkxPSI2NDYuNDM3NSIgeTI9IjY2Ni40Mzc1Ii8+PHBvbHlnb24gZmlsbD0iIzE4MTgxOCIgcG9pbnRzPSIxNzM2LjUsNjU2LjQzNzUsMTc0MC41LDY2Ni40Mzc1LDE3NDQuNSw2NTYuNDM3NSwxNzQwLjUsNjYwLjQzNzUiIHN0eWxlPSJzdHJva2U6IzE4MTgxODtzdHJva2Utd2lkdGg6MS4wOyIvPjxsaW5lIHN0eWxlPSJzdHJva2U6IzE4MTgxODtzdHJva2Utd2lkdGg6MS4wOyIgeDE9IjE3NDAuNSIgeDI9IjE3NDAuNSIgeTE9Ijc5Ni4xMjUiIHkyPSI4MzEuMTI1Ii8+PHBvbHlnb24gZmlsbD0iIzE4MTgxOCIgcG9pbnRzPSIxNzM2LjUsODIxLjEyNSwxNzQwLjUsODMxLjEyNSwxNzQ0LjUsODIxLjEyNSwxNzQwLjUsODI1LjEyNSIgc3R5bGU9InN0cm9rZTojMTgxODE4O3N0cm9rZS13aWR0aDoxLjA7Ii8+PGxpbmUgc3R5bGU9InN0cm9rZTojMTgxODE4O3N0cm9rZS13aWR0aDoxLjA7IiB4MT0iMTc0MC41IiB4Mj0iMTc0MC41IiB5MT0iODYzLjk2ODgiIHkyPSI4OTguOTY4OCIvPjxwb2x5Z29uIGZpbGw9IiMxODE4MTgiIHBvaW50cz0iMTczNi41LDg4OC45Njg4LDE3NDAuNSw4OTguOTY4OCwxNzQ0LjUsODg4Ljk2ODgsMTc0MC41LDg5Mi45Njg4IiBzdHlsZT0ic3Ryb2tlOiMxODE4MTg7c3Ryb2tlLXdpZHRoOjEuMDsiLz48bGluZSBzdHlsZT0ic3Ryb2tlOiMxODE4MTg7c3Ryb2tlLXdpZHRoOjEuMDsiIHgxPSIxNzQwLjUiIHgyPSIxNzQwLjUiIHkxPSI5MzEuODEyNSIgeTI9Ijk1MS44MTI1Ii8+PHBvbHlnb24gZmlsbD0iIzE4MTgxOCIgcG9pbnRzPSIxNzM2LjUsOTQxLjgxMjUsMTc0MC41LDk1MS44MTI1LDE3NDQuNSw5NDEuODEyNSwxNzQwLjUsOTQ1LjgxMjUiIHN0eWxlPSJzdHJva2U6IzE4MTgxODtzdHJva2Utd2lkdGg6MS4wOyIvPjxsaW5lIHN0eWxlPSJzdHJva2U6IzE4MTgxODtzdHJva2Utd2lkdGg6MS4wOyIgeDE9IjE3NDAuNSIgeDI9IjE3NDAuNSIgeTE9Ijk4NC42NTYzIiB5Mj0iMTAwNC42NTYzIi8+PHBvbHlnb24gZmlsbD0iIzE4MTgxOCIgcG9pbnRzPSIxNzM2LjUsOTk0LjY1NjMsMTc0MC41LDEwMDQuNjU2MywxNzQ0LjUsOTk0LjY1NjMsMTc0MC41LDk5OC42NTYzIiBzdHlsZT0ic3Ryb2tlOiMxODE4MTg7c3Ryb2tlLXdpZHRoOjEuMDsiLz48bGluZSBzdHlsZT0ic3Ryb2tlOiMxODE4MTg7c3Ryb2tlLXdpZHRoOjEuMDsiIHgxPSIxNzQwLjUiIHgyPSIxNzQwLjUiIHkxPSI3NDMuMjgxMyIgeTI9Ijc2My4yODEzIi8+PHBvbHlnb24gZmlsbD0iIzE4MTgxOCIgcG9pbnRzPSIxNzM2LjUsNzUzLjI4MTMsMTc0MC41LDc2My4yODEzLDE3NDQuNSw3NTMuMjgxMywxNzQwLjUsNzU3LjI4MTMiIHN0eWxlPSJzdHJva2U6IzE4MTgxODtzdHJva2Utd2lkdGg6MS4wOyIvPjxsaW5lIHN0eWxlPSJzdHJva2U6IzE4MTgxODtzdHJva2Utd2lkdGg6MS4wOyIgeDE9IjE3NDAuNSIgeDI9IjE3NDAuNSIgeTE9IjEwMzcuNSIgeTI9IjEwNDkiLz48bGluZSBzdHlsZT0ic3Ryb2tlOiMxODE4MTg7c3Ryb2tlLXdpZHRoOjEuMDsiIHgxPSIxNzQwLjUiIHgyPSIyMDY5IiB5MT0iMTA0OSIgeTI9IjEwNDkiLz48cG9seWdvbiBmaWxsPSIjMTgxODE4IiBwb2ludHM9IjIwNjUsOTEzLjM5MDYsMjA2OSw5MDMuMzkwNiwyMDczLDkxMy4zOTA2LDIwNjksOTA5LjM5MDYiIHN0eWxlPSJzdHJva2U6IzE4MTgxODtzdHJva2Utd2lkdGg6MS4wOyIvPjxsaW5lIHN0eWxlPSJzdHJva2U6IzE4MTgxODtzdHJva2Utd2lkdGg6MS4wOyIgeDE9IjIwNjkiIHgyPSIyMDY5IiB5MT0iNzMxLjI4MTMiIHkyPSIxMDQ5Ii8+PGxpbmUgc3R5bGU9InN0cm9rZTojMTgxODE4O3N0cm9rZS13aWR0aDoxLjA7IiB4MT0iMjA2OSIgeDI9IjE4MjEuNSIgeTE9IjczMS4yODEzIiB5Mj0iNzMxLjI4MTMiLz48cG9seWdvbiBmaWxsPSIjMTgxODE4IiBwb2ludHM9IjE4MzEuNSw3MjcuMjgxMywxODIxLjUsNzMxLjI4MTMsMTgzMS41LDczNS4yODEzLDE4MjcuNSw3MzEuMjgxMyIgc3R5bGU9InN0cm9rZTojMTgxODE4O3N0cm9rZS13aWR0aDoxLjA7Ii8+PGxpbmUgc3R5bGU9InN0cm9rZTojMTgxODE4O3N0cm9rZS13aWR0aDoxLjA7IiB4MT0iMTY1OS41IiB4Mj0iMTQxMiIgeTE9IjczMS4yODEzIiB5Mj0iNzMxLjI4MTMiLz48cG9seWdvbiBmaWxsPSIjMTgxODE4IiBwb2ludHM9IjE0MDgsODk5LjM5MDYsMTQxMiw5MDkuMzkwNiwxNDE2LDg5OS4zOTA2LDE0MTIsOTAzLjM5MDYiIHN0eWxlPSJzdHJva2U6IzE4MTgxODtzdHJva2Utd2lkdGg6MS4wOyIvPjxsaW5lIHN0eWxlPSJzdHJva2U6IzE4MTgxODtzdHJva2Utd2lkdGg6MS4wOyIgeDE9IjE0MTIiIHgyPSIxNDEyIiB5MT0iNzMxLjI4MTMiIHkyPSIxMDYxIi8+PGxpbmUgc3R5bGU9InN0cm9rZTojMTgxODE4O3N0cm9rZS13aWR0aDoxLjA7IiB4MT0iMTQxMiIgeDI9IjE3NDAuNSIgeTE9IjEwNjEiIHkyPSIxMDYxIi8+PGxpbmUgc3R5bGU9InN0cm9rZTojMTgxODE4O3N0cm9rZS13aWR0aDoxLjA7IiB4MT0iMTc0MC41IiB4Mj0iMTc0MC41IiB5MT0iMTA2MSIgeTI9IjEwODEiLz48cG9seWdvbiBmaWxsPSIjMTgxODE4IiBwb2ludHM9IjE3MzYuNSwxMDcxLDE3NDAuNSwxMDgxLDE3NDQuNSwxMDcxLDE3NDAuNSwxMDc1IiBzdHlsZT0ic3Ryb2tlOiMxODE4MTg7c3Ryb2tlLXdpZHRoOjEuMDsiLz48bGluZSBzdHlsZT0ic3Ryb2tlOiMxODE4MTg7c3Ryb2tlLXdpZHRoOjEuMDsiIHgxPSIxNzQwLjUiIHgyPSIxNzQwLjUiIHkxPSI2OTkuMjgxMyIgeTI9IjcxOS4yODEzIi8+PHBvbHlnb24gZmlsbD0iIzE4MTgxOCIgcG9pbnRzPSIxNzM2LjUsNzA5LjI4MTMsMTc0MC41LDcxOS4yODEzLDE3NDQuNSw3MDkuMjgxMywxNzQwLjUsNzEzLjI4MTMiIHN0eWxlPSJzdHJva2U6IzE4MTgxODtzdHJva2Utd2lkdGg6MS4wOyIvPjxsaW5lIHN0eWxlPSJzdHJva2U6IzE4MTgxODtzdHJva2Utd2lkdGg6MS4wOyIgeDE9IjIyNTIuNSIgeDI9IjIyNTIuNSIgeTE9IjgyMS4wNDY5IiB5Mj0iODU2LjA0NjkiLz48cG9seWdvbiBmaWxsPSIjMTgxODE4IiBwb2ludHM9IjIyNDguNSw4NDYuMDQ2OSwyMjUyLjUsODU2LjA0NjksMjI1Ni41LDg0Ni4wNDY5LDIyNTIuNSw4NTAuMDQ2OSIgc3R5bGU9InN0cm9rZTojMTgxODE4O3N0cm9rZS13aWR0aDoxLjA7Ii8+PGxpbmUgc3R5bGU9InN0cm9rZTojMTgxODE4O3N0cm9rZS13aWR0aDoxLjA7IiB4MT0iMzc2LjUiIHgyPSIzNzYuNSIgeTE9IjU5My41OTM4IiB5Mj0iNjEzLjU5MzgiLz48cG9seWdvbiBmaWxsPSIjMTgxODE4IiBwb2ludHM9IjM3Mi41LDYwMy41OTM4LDM3Ni41LDYxMy41OTM4LDM4MC41LDYwMy41OTM4LDM3Ni41LDYwNy41OTM4IiBzdHlsZT0ic3Ryb2tlOiMxODE4MTg7c3Ryb2tlLXdpZHRoOjEuMDsiLz48bGluZSBzdHlsZT0ic3Ryb2tlOiMxODE4MTg7c3Ryb2tlLXdpZHRoOjEuMDsiIHgxPSIxMDUxLjUiIHgyPSIxMDUxLjUiIHkxPSI1OTMuNTkzOCIgeTI9IjYxMy41OTM4Ii8+PHBvbHlnb24gZmlsbD0iIzE4MTgxOCIgcG9pbnRzPSIxMDQ3LjUsNjAzLjU5MzgsMTA1MS41LDYxMy41OTM4LDEwNTUuNSw2MDMuNTkzOCwxMDUxLjUsNjA3LjU5MzgiIHN0eWxlPSJzdHJva2U6IzE4MTgxODtzdHJva2Utd2lkdGg6MS4wOyIvPjxsaW5lIHN0eWxlPSJzdHJva2U6IzE4MTgxODtzdHJva2Utd2lkdGg6MS4wOyIgeDE9IjE3NDAuNSIgeDI9IjE3NDAuNSIgeTE9IjU5My41OTM4IiB5Mj0iNjEzLjU5MzgiLz48cG9seWdvbiBmaWxsPSIjMTgxODE4IiBwb2ludHM9IjE3MzYuNSw2MDMuNTkzOCwxNzQwLjUsNjEzLjU5MzgsMTc0NC41LDYwMy41OTM4LDE3NDAuNSw2MDcuNTkzOCIgc3R5bGU9InN0cm9rZTojMTgxODE4O3N0cm9rZS13aWR0aDoxLjA7Ii8+PGxpbmUgc3R5bGU9InN0cm9rZTojMTgxODE4O3N0cm9rZS13aWR0aDoxLjA7IiB4MT0iNDMzLjUiIHgyPSI5OTQuNSIgeTE9IjU4MS41OTM4IiB5Mj0iNTgxLjU5MzgiLz48cG9seWdvbiBmaWxsPSIjMTgxODE4IiBwb2ludHM9Ijk4NC41LDU3Ny41OTM4LDk5NC41LDU4MS41OTM4LDk4NC41LDU4NS41OTM4LDk4OC41LDU4MS41OTM4IiBzdHlsZT0ic3Ryb2tlOiMxODE4MTg7c3Ryb2tlLXdpZHRoOjEuMDsiLz48bGluZSBzdHlsZT0ic3Ryb2tlOiMxODE4MTg7c3Ryb2tlLXdpZHRoOjEuMDsiIHgxPSIxMTA4LjUiIHgyPSIxNjgzLjUiIHkxPSI1ODEuNTkzOCIgeTI9IjU4MS41OTM4Ii8+PHBvbHlnb24gZmlsbD0iIzE4MTgxOCIgcG9pbnRzPSIxNjczLjUsNTc3LjU5MzgsMTY4My41LDU4MS41OTM4LDE2NzMuNSw1ODUuNTkzOCwxNjc3LjUsNTgxLjU5MzgiIHN0eWxlPSJzdHJva2U6IzE4MTgxODtzdHJva2Utd2lkdGg6MS4wOyIvPjxsaW5lIHN0eWxlPSJzdHJva2U6IzE4MTgxODtzdHJva2Utd2lkdGg6MS4wOyIgeDE9IjEyMjUiIHgyPSIxMjI1IiB5MT0iNTQ5LjU5MzgiIHkyPSI1NTQuNTkzOCIvPjxsaW5lIHN0eWxlPSJzdHJva2U6IzE4MTgxODtzdHJva2Utd2lkdGg6MS4wOyIgeDE9IjEyMjUiIHgyPSIzNzYuNSIgeTE9IjU1NC41OTM4IiB5Mj0iNTU0LjU5MzgiLz48bGluZSBzdHlsZT0ic3Ryb2tlOiMxODE4MTg7c3Ryb2tlLXdpZHRoOjEuMDsiIHgxPSIzNzYuNSIgeDI9IjM3Ni41IiB5MT0iNTU0LjU5MzgiIHkyPSI1NjkuNTkzOCIvPjxwb2x5Z29uIGZpbGw9IiMxODE4MTgiIHBvaW50cz0iMzcyLjUsNTU5LjU5MzgsMzc2LjUsNTY5LjU5MzgsMzgwLjUsNTU5LjU5MzgsMzc2LjUsNTYzLjU5MzgiIHN0eWxlPSJzdHJva2U6IzE4MTgxODtzdHJva2Utd2lkdGg6MS4wOyIvPjxsaW5lIHN0eWxlPSJzdHJva2U6IzE4MTgxODtzdHJva2Utd2lkdGg6MS4wOyIgeDE9IjE3OTcuNSIgeDI9IjIyNTIuNSIgeTE9IjU4MS41OTM4IiB5Mj0iNTgxLjU5MzgiLz48bGluZSBzdHlsZT0ic3Ryb2tlOiMxODE4MTg7c3Ryb2tlLXdpZHRoOjEuMDsiIHgxPSIyMjUyLjUiIHgyPSIyMjUyLjUiIHkxPSI1ODEuNTkzOCIgeTI9Ijc4OC4yMDMxIi8+PHBvbHlnb24gZmlsbD0iIzE4MTgxOCIgcG9pbnRzPSIyMjQ4LjUsNzc4LjIwMzEsMjI1Mi41LDc4OC4yMDMxLDIyNTYuNSw3NzguMjAzMSwyMjUyLjUsNzgyLjIwMzEiIHN0eWxlPSJzdHJva2U6IzE4MTgxODtzdHJva2Utd2lkdGg6MS4wOyIvPjxsaW5lIHN0eWxlPSJzdHJva2U6IzE4MTgxODtzdHJva2Utd2lkdGg6MS4wOyIgeDE9IjIyNTIuNSIgeDI9IjIyNTIuNSIgeTE9Ijg4OC44OTA2IiB5Mj0iMTA4MSIvPjxwb2x5Z29uIGZpbGw9IiMxODE4MTgiIHBvaW50cz0iMjI0OC41LDEwNzEsMjI1Mi41LDEwODEsMjI1Ni41LDEwNzEsMjI1Mi41LDEwNzUiIHN0eWxlPSJzdHJva2U6IzE4MTgxODtzdHJva2Utd2lkdGg6MS4wOyIvPjxsaW5lIHN0eWxlPSJzdHJva2U6IzE4MTgxODtzdHJva2Utd2lkdGg6MS4wOyIgeDE9IjM3Ni41IiB4Mj0iMjI1Mi41IiB5MT0iMTA4MSIgeTI9IjEwODEiLz48bGluZSBzdHlsZT0ic3Ryb2tlOiMxODE4MTg7c3Ryb2tlLXdpZHRoOjEuMDsiIHgxPSIxMjI1IiB4Mj0iMTIyNSIgeTE9IjEwODEiIHkyPSIxMTAxIi8+PHBvbHlnb24gZmlsbD0iIzE4MTgxOCIgcG9pbnRzPSIxMjIxLDEwOTEsMTIyNSwxMTAxLDEyMjksMTA5MSwxMjI1LDEwOTUiIHN0eWxlPSJzdHJva2U6IzE4MTgxODtzdHJva2Utd2lkdGg6MS4wOyIvPjxsaW5lIHN0eWxlPSJzdHJva2U6IzE4MTgxODtzdHJva2Utd2lkdGg6MS4wOyIgeDE9IjEyMjUiIHgyPSIxMjI1IiB5MT0iMTEzMy44NDM4IiB5Mj0iMTE1My44NDM4Ii8+PHBvbHlnb24gZmlsbD0iIzE4MTgxOCIgcG9pbnRzPSIxMjIxLDExNDMuODQzOCwxMjI1LDExNTMuODQzOCwxMjI5LDExNDMuODQzOCwxMjI1LDExNDcuODQzOCIgc3R5bGU9InN0cm9rZTojMTgxODE4O3N0cm9rZS13aWR0aDoxLjA7Ii8+PGxpbmUgc3R5bGU9InN0cm9rZTojMTgxODE4O3N0cm9rZS13aWR0aDoxLjA7IiB4MT0iMTA2Ni41IiB4Mj0iMTA2Ni41IiB5MT0iMTI3My41MzEzIiB5Mj0iMTI5My41MzEzIi8+PHBvbHlnb24gZmlsbD0iIzE4MTgxOCIgcG9pbnRzPSIxMDYyLjUsMTI4My41MzEzLDEwNjYuNSwxMjkzLjUzMTMsMTA3MC41LDEyODMuNTMxMywxMDY2LjUsMTI4Ny41MzEzIiBzdHlsZT0ic3Ryb2tlOiMxODE4MTg7c3Ryb2tlLXdpZHRoOjEuMDsiLz48bGluZSBzdHlsZT0ic3Ryb2tlOiMxODE4MTg7c3Ryb2tlLXdpZHRoOjEuMDsiIHgxPSIxMDY2LjUiIHgyPSIxMDY2LjUiIHkxPSIxMzI2LjM3NSIgeTI9IjEzNDYuMzc1Ii8+PHBvbHlnb24gZmlsbD0iIzE4MTgxOCIgcG9pbnRzPSIxMDYyLjUsMTMzNi4zNzUsMTA2Ni41LDEzNDYuMzc1LDEwNzAuNSwxMzM2LjM3NSwxMDY2LjUsMTM0MC4zNzUiIHN0eWxlPSJzdHJva2U6IzE4MTgxODtzdHJva2Utd2lkdGg6MS4wOyIvPjxsaW5lIHN0eWxlPSJzdHJva2U6IzE4MTgxODtzdHJva2Utd2lkdGg6MS4wOyIgeDE9IjEwNjYuNSIgeDI9IjEwNjYuNSIgeTE9IjEzNzkuMjE4OCIgeTI9IjEzOTkuMjE4OCIvPjxwb2x5Z29uIGZpbGw9IiMxODE4MTgiIHBvaW50cz0iMTA2Mi41LDEzODkuMjE4OCwxMDY2LjUsMTM5OS4yMTg4LDEwNzAuNSwxMzg5LjIxODgsMTA2Ni41LDEzOTMuMjE4OCIgc3R5bGU9InN0cm9rZTojMTgxODE4O3N0cm9rZS13aWR0aDoxLjA7Ii8+PGxpbmUgc3R5bGU9InN0cm9rZTojMTgxODE4O3N0cm9rZS13aWR0aDoxLjA7IiB4MT0iMTA2Ni41IiB4Mj0iMTA2Ni41IiB5MT0iMTQzMi4wNjI1IiB5Mj0iMTQ1Mi4wNjI1Ii8+PHBvbHlnb24gZmlsbD0iIzE4MTgxOCIgcG9pbnRzPSIxMDYyLjUsMTQ0Mi4wNjI1LDEwNjYuNSwxNDUyLjA2MjUsMTA3MC41LDE0NDIuMDYyNSwxMDY2LjUsMTQ0Ni4wNjI1IiBzdHlsZT0ic3Ryb2tlOiMxODE4MTg7c3Ryb2tlLXdpZHRoOjEuMDsiLz48bGluZSBzdHlsZT0ic3Ryb2tlOiMxODE4MTg7c3Ryb2tlLXdpZHRoOjEuMDsiIHgxPSIxMTcxIiB4Mj0iMTA2Ni41IiB5MT0iMTIxOC42ODc1IiB5Mj0iMTIxOC42ODc1Ii8+PGxpbmUgc3R5bGU9InN0cm9rZTojMTgxODE4O3N0cm9rZS13aWR0aDoxLjA7IiB4MT0iMTA2Ni41IiB4Mj0iMTA2Ni41IiB5MT0iMTIxOC42ODc1IiB5Mj0iMTI0MC42ODc1Ii8+PHBvbHlnb24gZmlsbD0iIzE4MTgxOCIgcG9pbnRzPSIxMDYyLjUsMTIzMC42ODc1LDEwNjYuNSwxMjQwLjY4NzUsMTA3MC41LDEyMzAuNjg3NSwxMDY2LjUsMTIzNC42ODc1IiBzdHlsZT0ic3Ryb2tlOiMxODE4MTg7c3Ryb2tlLXdpZHRoOjEuMDsiLz48bGluZSBzdHlsZT0ic3Ryb2tlOiMxODE4MTg7c3Ryb2tlLXdpZHRoOjEuMDsiIHgxPSIxMjc5IiB4Mj0iMTM4My41IiB5MT0iMTIxOC42ODc1IiB5Mj0iMTIxOC42ODc1Ii8+PGxpbmUgc3R5bGU9InN0cm9rZTojMTgxODE4O3N0cm9rZS13aWR0aDoxLjA7IiB4MT0iMTM4My41IiB4Mj0iMTM4My41IiB5MT0iMTIxOC42ODc1IiB5Mj0iMTI0MC42ODc1Ii8+PGxpbmUgc3R5bGU9InN0cm9rZTojMTgxODE4O3N0cm9rZS13aWR0aDoxLjA7IiB4MT0iMTM4My41IiB4Mj0iMjQiIHkxPSIxMjQwLjY4NzUiIHkyPSIxMjQwLjY4NzUiLz48cG9seWdvbiBmaWxsPSIjMTgxODE4IiBwb2ludHM9IjM0LDEyMzYuNjg3NSwyNCwxMjQwLjY4NzUsMzQsMTI0NC42ODc1LDMwLDEyNDAuNjg3NSIgc3R5bGU9InN0cm9rZTojMTgxODE4O3N0cm9rZS13aWR0aDoxLjA7Ii8+PGxpbmUgc3R5bGU9InN0cm9rZTojMTgxODE4O3N0cm9rZS13aWR0aDoxLjA7IiB4MT0iMTA2Ni41IiB4Mj0iMTA2Ni41IiB5MT0iMTQ4NC45MDYzIiB5Mj0iMTQ4OS45MDYzIi8+PGxpbmUgc3R5bGU9InN0cm9rZTojMTgxODE4O3N0cm9rZS13aWR0aDoxLjA7IiB4MT0iMTA2Ni41IiB4Mj0iMjQzNCIgeTE9IjE0ODkuOTA2MyIgeTI9IjE0ODkuOTA2MyIvPjxwb2x5Z29uIGZpbGw9IiMxODE4MTgiIHBvaW50cz0iMjQzMCwxMDU3LjUsMjQzNCwxMDQ3LjUsMjQzOCwxMDU3LjUsMjQzNCwxMDUzLjUiIHN0eWxlPSJzdHJva2U6IzE4MTgxODtzdHJva2Utd2lkdGg6MS4wOyIvPjxsaW5lIHN0eWxlPSJzdHJva2U6IzE4MTgxODtzdHJva2Utd2lkdGg6MS4wOyIgeDE9IjI0MzQiIHgyPSIyNDM0IiB5MT0iNTM3LjU5MzgiIHkyPSIxNDg5LjkwNjMiLz48bGluZSBzdHlsZT0ic3Ryb2tlOiMxODE4MTg7c3Ryb2tlLXdpZHRoOjEuMDsiIHgxPSIyNDM0IiB4Mj0iMTMzNiIgeTE9IjUzNy41OTM4IiB5Mj0iNTM3LjU5MzgiLz48cG9seWdvbiBmaWxsPSIjMTgxODE4IiBwb2ludHM9IjEzNDYsNTMzLjU5MzgsMTMzNiw1MzcuNTkzOCwxMzQ2LDU0MS41OTM4LDEzNDIsNTM3LjU5MzgiIHN0eWxlPSJzdHJva2U6IzE4MTgxODtzdHJva2Utd2lkdGg6MS4wOyIvPjxsaW5lIHN0eWxlPSJzdHJva2U6IzE4MTgxODtzdHJva2Utd2lkdGg6MS4wOyIgeDE9IjEyMjUiIHgyPSIxMjI1IiB5MT0iMTE4Ni42ODc1IiB5Mj0iMTIwNi42ODc1Ii8+PHBvbHlnb24gZmlsbD0iIzE4MTgxOCIgcG9pbnRzPSIxMjIxLDExOTYuNjg3NSwxMjI1LDEyMDYuNjg3NSwxMjI5LDExOTYuNjg3NSwxMjI1LDEyMDAuNjg3NSIgc3R5bGU9InN0cm9rZTojMTgxODE4O3N0cm9rZS13aWR0aDoxLjA7Ii8+PGxpbmUgc3R5bGU9InN0cm9rZTojMTgxODE4O3N0cm9rZS13aWR0aDoxLjA7IiB4MT0iMTExNCIgeDI9IjI0IiB5MT0iNTM3LjU5MzgiIHkyPSI1MzcuNTkzOCIvPjxwb2x5Z29uIGZpbGw9IiMxODE4MTgiIHBvaW50cz0iMjAsMTA0OS41LDI0LDEwNTkuNSwyOCwxMDQ5LjUsMjQsMTA1My41IiBzdHlsZT0ic3Ryb2tlOiMxODE4MTg7c3Ryb2tlLXdpZHRoOjEuMDsiLz48bGluZSBzdHlsZT0ic3Ryb2tlOiMxODE4MTg7c3Ryb2tlLXdpZHRoOjEuMDsiIHgxPSIyNCIgeDI9IjI0IiB5MT0iNTM3LjU5MzgiIHkyPSIxNTA2LjkwNjMiLz48bGluZSBzdHlsZT0ic3Ryb2tlOiMxODE4MTg7c3Ryb2tlLXdpZHRoOjEuMDsiIHgxPSIyNCIgeDI9IjEyMjUiIHkxPSIxNTA2LjkwNjMiIHkyPSIxNTA2LjkwNjMiLz48bGluZSBzdHlsZT0ic3Ryb2tlOiMxODE4MTg7c3Ryb2tlLXdpZHRoOjEuMDsiIHgxPSIxMjI1IiB4Mj0iMTIyNSIgeTE9IjE1MDYuOTA2MyIgeTI9IjE1MjYuOTA2MyIvPjxwb2x5Z29uIGZpbGw9IiMxODE4MTgiIHBvaW50cz0iMTIyMSwxNTE2LjkwNjMsMTIyNSwxNTI2LjkwNjMsMTIyOSwxNTE2LjkwNjMsMTIyNSwxNTIwLjkwNjMiIHN0eWxlPSJzdHJva2U6IzE4MTgxODtzdHJva2Utd2lkdGg6MS4wOyIvPjxsaW5lIHN0eWxlPSJzdHJva2U6IzE4MTgxODtzdHJva2Utd2lkdGg6MS4wOyIgeDE9IjEyMjUiIHgyPSIxMjI1IiB5MT0iNTA1LjU5MzgiIHkyPSI1MjUuNTkzOCIvPjxwb2x5Z29uIGZpbGw9IiMxODE4MTgiIHBvaW50cz0iMTIyMSw1MTUuNTkzOCwxMjI1LDUyNS41OTM4LDEyMjksNTE1LjU5MzgsMTIyNSw1MTkuNTkzOCIgc3R5bGU9InN0cm9rZTojMTgxODE4O3N0cm9rZS13aWR0aDoxLjA7Ii8+PGxpbmUgc3R5bGU9InN0cm9rZTojMTgxODE4O3N0cm9rZS13aWR0aDoxLjA7IiB4MT0iMTIyNSIgeDI9IjEyMjUiIHkxPSIxNTU5Ljc1IiB5Mj0iMTU3OS43NSIvPjxwb2x5Z29uIGZpbGw9IiMxODE4MTgiIHBvaW50cz0iMTIyMSwxNTY5Ljc1LDEyMjUsMTU3OS43NSwxMjI5LDE1NjkuNzUsMTIyNSwxNTczLjc1IiBzdHlsZT0ic3Ryb2tlOiMxODE4MTg7c3Ryb2tlLXdpZHRoOjEuMDsiLz48bGluZSBzdHlsZT0ic3Ryb2tlOiMxODE4MTg7c3Ryb2tlLXdpZHRoOjEuMDsiIHgxPSIxMjI1IiB4Mj0iMTIyNSIgeTE9IjE2MTIuNTkzOCIgeTI9IjE2MzIuNTkzOCIvPjxwb2x5Z29uIGZpbGw9IiMxODE4MTgiIHBvaW50cz0iMTIyMSwxNjIyLjU5MzgsMTIyNSwxNjMyLjU5MzgsMTIyOSwxNjIyLjU5MzgsMTIyNSwxNjI2LjU5MzgiIHN0eWxlPSJzdHJva2U6IzE4MTgxODtzdHJva2Utd2lkdGg6MS4wOyIvPjxsaW5lIHN0eWxlPSJzdHJva2U6IzE4MTgxODtzdHJva2Utd2lkdGg6MS4wOyIgeDE9IjEyMjUiIHgyPSIxMjI1IiB5MT0iMTY2NS40Mzc1IiB5Mj0iMTY4NS40Mzc1Ii8+PHBvbHlnb24gZmlsbD0iIzE4MTgxOCIgcG9pbnRzPSIxMjIxLDE2NzUuNDM3NSwxMjI1LDE2ODUuNDM3NSwxMjI5LDE2NzUuNDM3NSwxMjI1LDE2NzkuNDM3NSIgc3R5bGU9InN0cm9rZTojMTgxODE4O3N0cm9rZS13aWR0aDoxLjA7Ii8+PGxpbmUgc3R5bGU9InN0cm9rZTojMTgxODE4O3N0cm9rZS13aWR0aDoxLjA7IiB4MT0iMTIyNSIgeDI9IjEyMjUiIHkxPSIxNzE4LjI4MTMiIHkyPSIxNzM4LjI4MTMiLz48cG9seWdvbiBmaWxsPSIjMTgxODE4IiBwb2ludHM9IjEyMjEsMTcyOC4yODEzLDEyMjUsMTczOC4yODEzLDEyMjksMTcyOC4yODEzLDEyMjUsMTczMi4yODEzIiBzdHlsZT0ic3Ryb2tlOiMxODE4MTg7c3Ryb2tlLXdpZHRoOjEuMDsiLz48bGluZSBzdHlsZT0ic3Ryb2tlOiMxODE4MTg7c3Ryb2tlLXdpZHRoOjEuMDsiIHgxPSIxMjI1IiB4Mj0iMTIyNSIgeTE9IjE3NzEuMTI1IiB5Mj0iMTc5MS4xMjUiLz48cG9seWdvbiBmaWxsPSIjMTgxODE4IiBwb2ludHM9IjEyMjEsMTc4MS4xMjUsMTIyNSwxNzkxLjEyNSwxMjI5LDE3ODEuMTI1LDEyMjUsMTc4NS4xMjUiIHN0eWxlPSJzdHJva2U6IzE4MTgxODtzdHJva2Utd2lkdGg6MS4wOyIvPjxsaW5lIHN0eWxlPSJzdHJva2U6IzE4MTgxODtzdHJva2Utd2lkdGg6MS4wOyIgeDE9IjEyMjUiIHgyPSIxMjI1IiB5MT0iMTgyMy45Njg4IiB5Mj0iMTg0My45Njg4Ii8+PHBvbHlnb24gZmlsbD0iIzE4MTgxOCIgcG9pbnRzPSIxMjIxLDE4MzMuOTY4OCwxMjI1LDE4NDMuOTY4OCwxMjI5LDE4MzMuOTY4OCwxMjI1LDE4MzcuOTY4OCIgc3R5bGU9InN0cm9rZTojMTgxODE4O3N0cm9rZS13aWR0aDoxLjA7Ii8+PCEtLVNSQz1balBSMVpqQ200OFJsVU9mSEJ6a20yM0tzMjJhYlNEWFRlSnMwTTI1bmhSbzlrc2tIbmk1czJqOWc3dU9aMXZ3WEtsallzNGNURTZjZ1IwRlNhZmQ5X0JfeUpKQUhZV1piWFI5TzRTSzU4ejVpeGptalNZdU1TS2hNRDNZTUdDU0lzMkl5QzFTaUt6RjlUZERKeDd3MU9aYzdYNDlQT0l3LXFGbFR4eFg4RUxuSUlPYUVBSWZNQjJDMlEwZmliSFRLQVp4bnZ0TWRtOFVCeWtkMFpJOFJITXVLc29Xa2VxUXpDWFVuQjJ6cW1OTHM5eEdrZkFJc2JDQXd6bElqQzk3WmxhQkpybGotcHI4QXF3T3hsOEtQYTJtMTlfRzZObGVVMDVrczJnQzgwWEM2MjZFVUFQQXFwaGtDaHFkQVhWTXh0TG1La3YtUHVoOW5BUGkzQk95dHM1a005Nnd4Vk1WU2NmdnhtbnI1UlI3S2dsbmV2THBHY0Y3NVVZLSAtZDdtZzBfM0dVVjB5VUVvU015VEdROExyS3NpY2lqc1ZwTHU0aXRjWlFTMGo5clVEeFRGcldDZUc3V0dsaWNIZ2twbTd2M3l3RmxmY18zb29yTkxQTHBlQWdYSkRhbDhLekdyRDlKdDRZZGduZWw1T3FKWWlRMVloVkdicXB4b05DMWV3U0pINFVGUnc1Q0IzVVlDOWVxNzJ3RWM0U0l6WEY5dW03YVNPX21GMi1GMzROTUUzVTUtVFdYU0Z1U0taeVU5MWxGV09OaXluRnhjSVlYd2tnaVBqbmU3LU9CaDhzaDRGVllaWVVvQlhsSTBuOHhCQVFZNnN6OWdReFVRb2R4Qkh1NGdHN2lOejA1R1pYVW5DSkp5cHVGMkhYdHdMRFlEUUxQWm5GOUZpcDYtdi1faVR4N1BoeHM0dHF6eDVSZ1F6WnlsQ196ZDkzakhSR1NkTmNhRUR0VnRkd1RxNWxQLUZsZzVoX2RCQWdSLXNFMUxOOUVyemdMZUJnYS15ZGxLSjZ3RTFuY1hpT3BwRzYzLWppUnY4ejZTbFJOeTVBd0F0TDQ5RXhXbkN5czR5TEVqQXpCbmpNWWxfMG0wMF0tLT48L2c+PC9zdmc+;" vertex="1" parent="1">
            <mxGeometry x="-820" y="-690" width="2460" height="1876" as="geometry" />
          </mxCell>
        </UserObject>
      </root>
    </mxGraphModel>
  </diagram>
</mxfile>
